<mxfile host="app.diagrams.net" modified="2020-05-21T12:21:21.054Z" agent="5.0 (Windows NT 10.0; Win64; x64) AppleWebKit/537.36 (KHTML, like Gecko) Chrome/79.0.3945.130 Safari/537.36" etag="OiMa5nGlHOgHMghwfk5m" version="13.1.3" type="github">
  <diagram name="Page-1" id="822b0af5-4adb-64df-f703-e8dfc1f81529">
    <mxGraphModel dx="1038" dy="548" grid="0" gridSize="10" guides="1" tooltips="1" connect="1" arrows="1" fold="1" page="1" pageScale="1" pageWidth="1100" pageHeight="850" background="#ffffff" math="0" shadow="0">
      <root>
        <mxCell id="0" />
        <mxCell id="1" parent="0" />
        <mxCell id="mqUPXLCxFS9QpvWDTxzc-13" value="" style="ellipse;whiteSpace=wrap;html=1;fillColor=#d5e8d4;strokeColor=none;" parent="1" vertex="1">
          <mxGeometry x="509" y="230" width="210" height="70" as="geometry" />
        </mxCell>
        <mxCell id="mqUPXLCxFS9QpvWDTxzc-12" value="" style="ellipse;whiteSpace=wrap;html=1;fillColor=#d5e8d4;strokeColor=none;" parent="1" vertex="1">
          <mxGeometry x="150" y="220" width="322" height="90" as="geometry" />
        </mxCell>
        <mxCell id="mqUPXLCxFS9QpvWDTxzc-3" value="生产中心1" style="shape=image;verticalLabelPosition=bottom;labelBackgroundColor=#ffffff;verticalAlign=top;aspect=fixed;imageAspect=0;image=data:image/svg+xml,PHN2ZyB4bWxuczpkYz0iaHR0cDovL3B1cmwub3JnL2RjL2VsZW1lbnRzLzEuMS8iIHhtbG5zOmNjPSJodHRwOi8vY3JlYXRpdmVjb21tb25zLm9yZy9ucyMiIHhtbG5zOnJkZj0iaHR0cDovL3d3dy53My5vcmcvMTk5OS8wMi8yMi1yZGYtc3ludGF4LW5zIyIgeG1sbnM6c3ZnPSJodHRwOi8vd3d3LnczLm9yZy8yMDAwL3N2ZyIgeG1sbnM9Imh0dHA6Ly93d3cudzMub3JnLzIwMDAvc3ZnIiB4bWxuczp4bGluaz0iaHR0cDovL3d3dy53My5vcmcvMTk5OS94bGluayIgeG1sbnM6c29kaXBvZGk9Imh0dHA6Ly9zb2RpcG9kaS5zb3VyY2Vmb3JnZS5uZXQvRFREL3NvZGlwb2RpLTAuZHRkIiB4bWxuczppbmtzY2FwZT0iaHR0cDovL3d3dy5pbmtzY2FwZS5vcmcvbmFtZXNwYWNlcy9pbmtzY2FwZSIgdmVyc2lvbj0iMS4xIiBpZD0iTGF5ZXJfMSIgeD0iMHB4IiB5PSIwcHgiIHZpZXdCb3g9IjAgMCA0OC40MDczNzkgNjkuNzYwMDAyIiB4bWw6c3BhY2U9InByZXNlcnZlIiBzb2RpcG9kaTpkb2NuYW1lPSJhaW1zLnN2ZyIgd2lkdGg9IjQ4LjQwNzM3OSIgaGVpZ2h0PSI2OS43NjAwMDIiIGlua3NjYXBlOnZlcnNpb249IjAuOTIuMyAoMjQwNTU0NiwgMjAxOC0wMy0xMSkiPjxtZXRhZGF0YSBpZD0ibWV0YWRhdGE2MjkzNSI+PHJkZjpSREY+PGNjOldvcmsgcmRmOmFib3V0PSIiPjxkYzpmb3JtYXQ+aW1hZ2Uvc3ZnK3htbDwvZGM6Zm9ybWF0PjxkYzp0eXBlIHJkZjpyZXNvdXJjZT0iaHR0cDovL3B1cmwub3JnL2RjL2RjbWl0eXBlL1N0aWxsSW1hZ2UiLz48ZGM6dGl0bGUvPjwvY2M6V29yaz48L3JkZjpSREY+PC9tZXRhZGF0YT48ZGVmcyBpZD0iZGVmczYyOTMzIj4mI3hhOwk8ZGVmcyBpZD0iZGVmczYyNzY3Ij4mI3hhOwkJPHJlY3QgaGVpZ2h0PSI4NDEuNSIgd2lkdGg9IjU5NC43NSIgaWQ9IlNWR0lEXzFfIiB4PSIwIiB5PSIwIi8+JiN4YTsJPC9kZWZzPiYjeGE7CTxjbGlwUGF0aCBpZD0iU1ZHSURfMl8iPiYjeGE7CQk8dXNlIGlkPSJ1c2U2Mjc2OSIgc3R5bGU9Im92ZXJmbG93OnZpc2libGUiIHhsaW5rOmhyZWY9IiNTVkdJRF8xXyIgeD0iMCIgeT0iMCIgd2lkdGg9IjEwMCUiIGhlaWdodD0iMTAwJSIvPiYjeGE7CTwvY2xpcFBhdGg+JiN4YTsJJiN4YTsJJiN4YTsJCSYjeGE7CSYjeGE7CQkmI3hhOwkmI3hhOwkJJiN4YTsJJiN4YTsJCSYjeGE7CSYjeGE7CQkmI3hhOwkmI3hhOwkJJiN4YTsJJiN4YTsJCSYjeGE7CSYjeGE7CQkmI3hhOwkmI3hhOwkJJiN4YTsJJiN4YTsJCSYjeGE7CSYjeGE7CQkmI3hhOwkmI3hhOwkJJiN4YTsJJiN4YTsJCSYjeGE7CSYjeGE7CQkmI3hhOwkmI3hhOwkJJiN4YTsJJiN4YTsJCSYjeGE7CSYjeGE7CQkmI3hhOwkmI3hhOwkJJiN4YTsJJiN4YTsJCSYjeGE7CSYjeGE7CSYjeGE7CSYjeGE7CSYjeGE7CQkmI3hhOwkmI3hhOwkJJiN4YTsJJiN4YTsJCSYjeGE7CSYjeGE7CQkmI3hhOwkmI3hhOwkJJiN4YTsJJiN4YTsJCSYjeGE7CSYjeGE7CQkmI3hhOwkmI3hhOwkJJiN4YTsJJiN4YTsJCSYjeGE7CSYjeGE7CQkmI3hhOwkmI3hhOwkJJiN4YTsJJiN4YTsJCSYjeGE7CSYjeGE7CSYjeGE7CSYjeGE7PC9kZWZzPjxzb2RpcG9kaTpuYW1lZHZpZXcgcGFnZWNvbG9yPSIjZmZmZmZmIiBib3JkZXJjb2xvcj0iIzY2NjY2NiIgYm9yZGVyb3BhY2l0eT0iMSIgb2JqZWN0dG9sZXJhbmNlPSIxMCIgZ3JpZHRvbGVyYW5jZT0iMTAiIGd1aWRldG9sZXJhbmNlPSIxMCIgaW5rc2NhcGU6cGFnZW9wYWNpdHk9IjAiIGlua3NjYXBlOnBhZ2VzaGFkb3c9IjIiIGlua3NjYXBlOndpbmRvdy13aWR0aD0iMTkyMCIgaW5rc2NhcGU6d2luZG93LWhlaWdodD0iMTAxNyIgaWQ9Im5hbWVkdmlldzYyOTMxIiBzaG93Z3JpZD0iZmFsc2UiIGZpdC1tYXJnaW4tdG9wPSIwIiBmaXQtbWFyZ2luLWxlZnQ9IjAiIGZpdC1tYXJnaW4tcmlnaHQ9IjAiIGZpdC1tYXJnaW4tYm90dG9tPSIwIiBpbmtzY2FwZTp6b29tPSIxLjQ1NzA2ODUiIGlua3NjYXBlOmN4PSItMTk4LjI3NjIiIGlua3NjYXBlOmN5PSItNTcuNzc0Njc1IiBpbmtzY2FwZTp3aW5kb3cteD0iLTgiIGlua3NjYXBlOndpbmRvdy15PSItOCIgaW5rc2NhcGU6d2luZG93LW1heGltaXplZD0iMSIgaW5rc2NhcGU6Y3VycmVudC1sYXllcj0iTGF5ZXJfMSIvPiYjeGE7PHJlY3QgaWQ9InJlY3Q2Mjc4MiIgY2xpcC1wYXRoPSJ1cmwoI1NWR0lEXzJfKSIgaGVpZ2h0PSI2OC4yNSIgd2lkdGg9IjM5Ljc1IiBzdHlsZT0iY2xpcC1ydWxlOmV2ZW5vZGQ7ZmlsbDojZmZmZmZmO2ZpbGwtcnVsZTpldmVub2RkIiB5PSIxODkuOTIiIHg9IjMxMi42NiIgdHJhbnNmb3JtPSJ0cmFuc2xhdGUoLTMxMS45MSwtMTg5LjE3KSIvPjxyZWN0IGlkPSJyZWN0NjI3ODQiIGNsaXAtcGF0aD0idXJsKCNTVkdJRF8yXykiIGhlaWdodD0iNjguMjUiIHdpZHRoPSIzOS43NSIgc3R5bGU9ImZpbGw6bm9uZTtzdHJva2U6IzU1NmE4YTtzdHJva2Utd2lkdGg6MS41O3N0cm9rZS1taXRlcmxpbWl0OjEwIiB5PSIxODkuOTIiIHg9IjMxMi42NiIgdHJhbnNmb3JtPSJ0cmFuc2xhdGUoLTMxMS45MSwtMTg5LjE3KSIvPjxyZWN0IGlkPSJyZWN0NjI3ODYiIGNsaXAtcGF0aD0idXJsKCNTVkdJRF8yXykiIGhlaWdodD0iNjYuNzUiIHdpZHRoPSIxOS41IiBzdHlsZT0iY2xpcC1ydWxlOmV2ZW5vZGQ7ZmlsbDojZTVlNWU1O2ZpbGwtcnVsZTpldmVub2RkIiB5PSIxOTAuNjciIHg9IjMzMi4xNiIgdHJhbnNmb3JtPSJ0cmFuc2xhdGUoLTMxMS45MSwtMTg5LjE3KSIvPjxyZWN0IGlkPSJyZWN0NjI3ODgiIGNsaXAtcGF0aD0idXJsKCNTVkdJRF8yXykiIGhlaWdodD0iMi4yNSIgd2lkdGg9IjE4IiBzdHlsZT0iY2xpcC1ydWxlOmV2ZW5vZGQ7ZmlsbDojMmJjN2Y0O2ZpbGwtcnVsZTpldmVub2RkIiB5PSIyMDcuMTciIHg9IjMxNC4xNiIgdHJhbnNmb3JtPSJ0cmFuc2xhdGUoLTMxMS45MSwtMTg5LjE3KSIvPjxyZWN0IGlkPSJyZWN0NjI3OTAiIGNsaXAtcGF0aD0idXJsKCNTVkdJRF8yXykiIGhlaWdodD0iMi4yNSIgd2lkdGg9IjE4IiBzdHlsZT0iY2xpcC1ydWxlOmV2ZW5vZGQ7ZmlsbDojMmJjN2Y0O2ZpbGwtcnVsZTpldmVub2RkIiB5PSIyMDEuOTIiIHg9IjMxNC4xNiIgdHJhbnNmb3JtPSJ0cmFuc2xhdGUoLTMxMS45MSwtMTg5LjE3KSIvPjxyZWN0IGlkPSJyZWN0NjI3OTIiIGNsaXAtcGF0aD0idXJsKCNTVkdJRF8yXykiIGhlaWdodD0iMi4yNSIgd2lkdGg9IjE4IiBzdHlsZT0iY2xpcC1ydWxlOmV2ZW5vZGQ7ZmlsbDojMmJjN2Y0O2ZpbGwtcnVsZTpldmVub2RkIiB5PSIxOTYuNjciIHg9IjMxNC4xNiIgdHJhbnNmb3JtPSJ0cmFuc2xhdGUoLTMxMS45MSwtMTg5LjE3KSIvPjxyZWN0IGlkPSJyZWN0NjI3OTQiIGNsaXAtcGF0aD0idXJsKCNTVkdJRF8yXykiIGhlaWdodD0iMi4yNSIgd2lkdGg9IjE5LjUiIHN0eWxlPSJjbGlwLXJ1bGU6ZXZlbm9kZDtmaWxsOiM1NTZhOGE7ZmlsbC1ydWxlOmV2ZW5vZGQiIHk9IjIwNy4xNyIgeD0iMzMyLjE2IiB0cmFuc2Zvcm09InRyYW5zbGF0ZSgtMzExLjkxLC0xODkuMTcpIi8+PHJlY3QgaWQ9InJlY3Q2Mjc5NiIgY2xpcC1wYXRoPSJ1cmwoI1NWR0lEXzJfKSIgaGVpZ2h0PSIyLjI1IiB3aWR0aD0iMTkuNSIgc3R5bGU9ImNsaXAtcnVsZTpldmVub2RkO2ZpbGw6IzU1NmE4YTtmaWxsLXJ1bGU6ZXZlbm9kZCIgeT0iMjAxLjkyIiB4PSIzMzIuMTYiIHRyYW5zZm9ybT0idHJhbnNsYXRlKC0zMTEuOTEsLTE4OS4xNykiLz48cmVjdCBpZD0icmVjdDYyNzk4IiBjbGlwLXBhdGg9InVybCgjU1ZHSURfMl8pIiBoZWlnaHQ9IjIuMjUiIHdpZHRoPSIxOS41IiBzdHlsZT0iY2xpcC1ydWxlOmV2ZW5vZGQ7ZmlsbDojNTU2YThhO2ZpbGwtcnVsZTpldmVub2RkIiB5PSIxOTYuNjciIHg9IjMzMi4xNiIgdHJhbnNmb3JtPSJ0cmFuc2xhdGUoLTMxMS45MSwtMTg5LjE3KSIvPjxyZWN0IGlkPSJyZWN0NjI4MDAiIGNsaXAtcGF0aD0idXJsKCNTVkdJRF8yXykiIGhlaWdodD0iNjYuNzUiIHdpZHRoPSIxOS41IiBzdHlsZT0iY2xpcC1ydWxlOmV2ZW5vZGQ7ZmlsbDojZTVlNWU1O2ZpbGwtcnVsZTpldmVub2RkIiB5PSIxOTAuNjciIHg9IjMzMi4xNiIgdHJhbnNmb3JtPSJ0cmFuc2xhdGUoLTMxMS45MSwtMTg5LjE3KSIvPjxyZWN0IGlkPSJyZWN0NjI4MDIiIGNsaXAtcGF0aD0idXJsKCNTVkdJRF8yXykiIGhlaWdodD0iMi4yNSIgd2lkdGg9IjE4IiBzdHlsZT0iY2xpcC1ydWxlOmV2ZW5vZGQ7ZmlsbDojMmJjN2Y0O2ZpbGwtcnVsZTpldmVub2RkIiB5PSIyMDcuMTciIHg9IjMxNC4xNiIgdHJhbnNmb3JtPSJ0cmFuc2xhdGUoLTMxMS45MSwtMTg5LjE3KSIvPjxyZWN0IGlkPSJyZWN0NjI4MDQiIGNsaXAtcGF0aD0idXJsKCNTVkdJRF8yXykiIGhlaWdodD0iMi4yNSIgd2lkdGg9IjE4IiBzdHlsZT0iY2xpcC1ydWxlOmV2ZW5vZGQ7ZmlsbDojMmJjN2Y0O2ZpbGwtcnVsZTpldmVub2RkIiB5PSIyMDEuOTIiIHg9IjMxNC4xNiIgdHJhbnNmb3JtPSJ0cmFuc2xhdGUoLTMxMS45MSwtMTg5LjE3KSIvPjxyZWN0IGlkPSJyZWN0NjI4MDYiIGNsaXAtcGF0aD0idXJsKCNTVkdJRF8yXykiIGhlaWdodD0iMi4yNSIgd2lkdGg9IjE4IiBzdHlsZT0iY2xpcC1ydWxlOmV2ZW5vZGQ7ZmlsbDojMmJjN2Y0O2ZpbGwtcnVsZTpldmVub2RkIiB5PSIxOTYuNjciIHg9IjMxNC4xNiIgdHJhbnNmb3JtPSJ0cmFuc2xhdGUoLTMxMS45MSwtMTg5LjE3KSIvPjxyZWN0IGlkPSJyZWN0NjI4MDgiIGNsaXAtcGF0aD0idXJsKCNTVkdJRF8yXykiIGhlaWdodD0iMi4yNSIgd2lkdGg9IjE5LjUiIHN0eWxlPSJjbGlwLXJ1bGU6ZXZlbm9kZDtmaWxsOiM1NTZhOGE7ZmlsbC1ydWxlOmV2ZW5vZGQiIHk9IjIwNy4xNyIgeD0iMzMyLjE2IiB0cmFuc2Zvcm09InRyYW5zbGF0ZSgtMzExLjkxLC0xODkuMTcpIi8+PHJlY3QgaWQ9InJlY3Q2MjgxMCIgY2xpcC1wYXRoPSJ1cmwoI1NWR0lEXzJfKSIgaGVpZ2h0PSIyLjI1IiB3aWR0aD0iMTkuNSIgc3R5bGU9ImNsaXAtcnVsZTpldmVub2RkO2ZpbGw6IzU1NmE4YTtmaWxsLXJ1bGU6ZXZlbm9kZCIgeT0iMjAxLjkyIiB4PSIzMzIuMTYiIHRyYW5zZm9ybT0idHJhbnNsYXRlKC0zMTEuOTEsLTE4OS4xNykiLz48cmVjdCBpZD0icmVjdDYyODEyIiBjbGlwLXBhdGg9InVybCgjU1ZHSURfMl8pIiBoZWlnaHQ9IjIuMjUiIHdpZHRoPSIxOS41IiBzdHlsZT0iY2xpcC1ydWxlOmV2ZW5vZGQ7ZmlsbDojNTU2YThhO2ZpbGwtcnVsZTpldmVub2RkIiB5PSIxOTYuNjciIHg9IjMzMi4xNiIgdHJhbnNmb3JtPSJ0cmFuc2xhdGUoLTMxMS45MSwtMTg5LjE3KSIvPjxyZWN0IGlkPSJyZWN0NjI4MTQiIGNsaXAtcGF0aD0idXJsKCNTVkdJRF8yXykiIGhlaWdodD0iMi4yNSIgd2lkdGg9IjIuMjUiIHN0eWxlPSJjbGlwLXJ1bGU6ZXZlbm9kZDtmaWxsOiM1NTZhOGE7ZmlsbC1ydWxlOmV2ZW5vZGQiIHk9IjE5Ni42NyIgeD0iMzEzLjQxIiB0cmFuc2Zvcm09InRyYW5zbGF0ZSgtMzExLjkxLC0xODkuMTcpIi8+PHJlY3QgaWQ9InJlY3Q2MjgxNiIgY2xpcC1wYXRoPSJ1cmwoI1NWR0lEXzJfKSIgaGVpZ2h0PSIyLjI1IiB3aWR0aD0iMi4yNSIgc3R5bGU9ImNsaXAtcnVsZTpldmVub2RkO2ZpbGw6IzU1NmE4YTtmaWxsLXJ1bGU6ZXZlbm9kZCIgeT0iMjAxLjkyIiB4PSIzMTMuNDEiIHRyYW5zZm9ybT0idHJhbnNsYXRlKC0zMTEuOTEsLTE4OS4xNykiLz48cmVjdCBpZD0icmVjdDYyODE4IiBjbGlwLXBhdGg9InVybCgjU1ZHSURfMl8pIiBoZWlnaHQ9IjIuMjUiIHdpZHRoPSIyLjI1IiBzdHlsZT0iY2xpcC1ydWxlOmV2ZW5vZGQ7ZmlsbDojNTU2YThhO2ZpbGwtcnVsZTpldmVub2RkIiB5PSIyMDcuMTciIHg9IjMxMy40MSIgdHJhbnNmb3JtPSJ0cmFuc2xhdGUoLTMxMS45MSwtMTg5LjE3KSIvPjxwb2x5Z29uIGlkPSJwb2x5Z29uNjI4MjAiIGNsaXAtcGF0aD0idXJsKCNTVkdJRF8yXykiIHBvaW50cz0iMzUxLjE4LDI1OC4xOCAzMzQuNjMsMjU4LjE4IDMyNi4zNiwyNDMuOTQgMzM0LjYzLDIyOS43MSAzNTEuMTgsMjI5LjcxIDM1OS40NSwyNDMuOTQgIiBzdHlsZT0iY2xpcC1ydWxlOmV2ZW5vZGQ7ZmlsbDojZmZmZmZmO2ZpbGwtcnVsZTpldmVub2RkIiB0cmFuc2Zvcm09InRyYW5zbGF0ZSgtMzExLjkxLC0xODkuMTcpIi8+PHBvbHlnb24gaWQ9InBvbHlnb242MjgyMiIgY2xpcC1wYXRoPSJ1cmwoI1NWR0lEXzJfKSIgcG9pbnRzPSIzNTEuMTgsMjU4LjE4IDMzNC42MywyNTguMTggMzI2LjM2LDI0My45NCAzMzQuNjMsMjI5LjcxIDM1MS4xOCwyMjkuNzEgMzU5LjQ1LDI0My45NCAiIHN0eWxlPSJmaWxsOm5vbmU7c3Ryb2tlOiNmZmMwMDA7c3Ryb2tlLXdpZHRoOjEuNTtzdHJva2UtbWl0ZXJsaW1pdDoxMCIgdHJhbnNmb3JtPSJ0cmFuc2xhdGUoLTMxMS45MSwtMTg5LjE3KSIvPjxnIGlkPSJnNjI4NjAiIGNsaXAtcGF0aD0idXJsKCNTVkdJRF8yXykiIHRyYW5zZm9ybT0idHJhbnNsYXRlKC0zMTEuOTEsLTE4OS4xNykiPiYjeGE7CQk8ZGVmcyBpZD0iZGVmczYyODI1Ij4mI3hhOwkJCTxyZWN0IGhlaWdodD0iMjEuODMiIHdpZHRoPSIyMS44MDk5OTkiIHk9IjIzMy4wMyIgeD0iMzMyIiBpZD0iU1ZHSURfNV8iLz4mI3hhOwkJPC9kZWZzPiYjeGE7CQk8Y2xpcFBhdGggaWQ9IlNWR0lEXzZfIj4mI3hhOwkJCTx1c2UgaGVpZ2h0PSIxMDAlIiB3aWR0aD0iMTAwJSIgeT0iMCIgeD0iMCIgaWQ9InVzZTYyODI3IiBzdHlsZT0ib3ZlcmZsb3c6dmlzaWJsZSIgeGxpbms6aHJlZj0iI1NWR0lEXzVfIi8+JiN4YTsJCTwvY2xpcFBhdGg+JiN4YTsJCTxnIGlkPSJnNjI4NTgiIGNsaXAtcGF0aD0idXJsKCNTVkdJRF82XykiPiYjeGE7CQkJPGRlZnMgaWQ9ImRlZnM2MjgzMSI+JiN4YTsJCQkJPHJlY3QgaGVpZ2h0PSIyMS44MyIgd2lkdGg9IjIxLjgwOTk5OSIgeT0iMjMzLjAzIiB4PSIzMzIiIGlkPSJTVkdJRF83XyIvPiYjeGE7CQkJPC9kZWZzPiYjeGE7CQkJPGNsaXBQYXRoIGlkPSJTVkdJRF84XyI+JiN4YTsJCQkJPHVzZSBoZWlnaHQ9IjEwMCUiIHdpZHRoPSIxMDAlIiB5PSIwIiB4PSIwIiBpZD0idXNlNjI4MzMiIHN0eWxlPSJvdmVyZmxvdzp2aXNpYmxlIiB4bGluazpocmVmPSIjU1ZHSURfN18iLz4mI3hhOwkJCTwvY2xpcFBhdGg+JiN4YTsJCQk8ZyBpZD0iZzYyODU2IiBjbGlwLXBhdGg9InVybCgjU1ZHSURfOF8pIj4mI3hhOwkJCQk8ZGVmcyBpZD0iZGVmczYyODM3Ij4mI3hhOwkJCQkJPHJlY3QgaGVpZ2h0PSIyMS44MyIgd2lkdGg9IjIxLjgwOTk5OSIgeT0iMjMzLjAzIiB4PSIzMzIiIGlkPSJTVkdJRF85XyIvPiYjeGE7CQkJCTwvZGVmcz4mI3hhOwkJCQk8Y2xpcFBhdGggaWQ9IlNWR0lEXzEwXyI+JiN4YTsJCQkJCTx1c2UgaGVpZ2h0PSIxMDAlIiB3aWR0aD0iMTAwJSIgeT0iMCIgeD0iMCIgaWQ9InVzZTYyODM5IiBzdHlsZT0ib3ZlcmZsb3c6dmlzaWJsZSIgeGxpbms6aHJlZj0iI1NWR0lEXzlfIi8+JiN4YTsJCQkJPC9jbGlwUGF0aD4mI3hhOwkJCQk8ZyBpZD0iZzYyODU0IiBjbGlwLXBhdGg9InVybCgjU1ZHSURfMTBfKSI+JiN4YTsJCQkJCTxnIGlkPSJnNjI4NTIiPiYjeGE7CQkJCQkJPGRlZnMgaWQ9ImRlZnM2Mjg0MyI+JiN4YTsJCQkJCQkJPHJlY3QgaGVpZ2h0PSIyMS44MyIgd2lkdGg9IjIxLjgwOTk5OSIgeT0iMjMzLjAzIiB4PSIzMzIiIGlkPSJTVkdJRF8xMV8iLz4mI3hhOwkJCQkJCTwvZGVmcz4mI3hhOwkJCQkJCTxjbGlwUGF0aCBpZD0iU1ZHSURfMTJfIj4mI3hhOwkJCQkJCQk8dXNlIGhlaWdodD0iMTAwJSIgd2lkdGg9IjEwMCUiIHk9IjAiIHg9IjAiIGlkPSJ1c2U2Mjg0NSIgc3R5bGU9Im92ZXJmbG93OnZpc2libGUiIHhsaW5rOmhyZWY9IiNTVkdJRF8xMV8iLz4mI3hhOwkJCQkJCTwvY2xpcFBhdGg+JiN4YTsJCQkJCQk8ZyBpZD0iZzYyODUwIiBjbGlwLXBhdGg9InVybCgjU1ZHSURfMTJfKSI+JiN4YTsJCQkJCQkJJiN4YTsJCQkJCQkJCTxpbWFnZSBpZD0iaW1hZ2U2Mjg0OCIgdHJhbnNmb3JtPSJtYXRyaXgoMC4zNjM2LDAsMCwwLjM2MzksMzMyLDIzMy4wMjcyKSIgeGxpbms6aHJlZj0iZGF0YTppbWFnZS9wbmc7YmFzZTY0LGlWQk9SdzBLR2dvQUFBQU5TVWhFVWdBQUFEMEFBQUEvQ0FZQUFBQlRxc0RpQUFBQUNYQklXWE1BQUI1ekFBQWVjd0ZDbUNvWEFBQUEgR1hSRldIUlRiMlowZDJGeVpRQkJaRzlpWlNCSmJXRm5aVkpsWVdSNWNjbGxQQUFBQjl4SlJFRlVlTnJzV250c1ZGVWUvczY5dDBPbiBqeG1tMDZhQzRLTlJsQlhSbFdyUVRaZEgwMWdSbEdqRXJMdEdFNG1OR2wyZjhmV0grcGRSRTl4b3pJWmdOTHNhSTQzNHdoQnJIeElGIGdaVnNJQ2dxS2lCWVNtbWwwMmtMSFdibUhyOHpyVWwzdlJkNjc4eVpxYkVuT1hON2UrK2MzLzN1Ny9YOWZtZUEzK0VRK1JBaW40Q0kgMWFHTXdzb05BeVdVR29DRU9TbzlKU1VTUEIrU0J1TGhoVGd1eEc4WWRFOHJ5Z01tcGhrUzFRUjBQb0hOSnFDWmxCcmwzOFU4U3Q1MiBqS0NQOFBnRHIzM0o0M2MyeisxaGRFV3V3dkJ2Qm5Sc0l6VXFVWk8yTWQ4MHNKUmcvc1FaR1pkVlNQeklON0ZScHZHQk1MQXptY0MrIGFDTXRZYUtDN21xQldScEFqUlJZYkFCTi9OZkZCT3RMQnNHbmVHaTMwMWpERmJhRkZxT1RDOGtKQlRyV2ppQUIxdEpuNytmcHRYN0IgT29BZjVsd2prbGpUMVkydlp0MmNlUm1GQjkzWGdqSWpnRVpENEJtQ3JkRVNEQ1UycFpKNGJBallPcU1CeVlLQzdtOW5OQVp1TUV3OCBQdzYvVmVaNVBETWxIM3pFR29vNFN6bW5qQVA0TnlrYmR4emVpMDltcjBTNklLRDN2UU1yT2pWanlpOXpUajNKclZRUURxVWx1aG5nIDloSDVRWUtPVTdxaHZzZnpHcDdQcEd0VTg3N3BuSUdUQU4vRDRQYTN5SlhZN3RmSHN3TGQxNHBMclNLc3k2UWg1Nkg4NzN1bW9LMjIgalhkakNYeDYxbFg0eVFHSWlIZGdCZ3pVYzYzbERJSi94TWlhd2dYNHAzWWNONFd2d1k5NUJUM1lnUXArKzAwK2FJUGJMZExHRmh0NCBQdFNERnJFQzlyaDh0eG5CZUJSL0ZTYWFHQ011R2pYL1g0MTBDcXZpQ1R3MmM0bjNkT1l2blRSRERGYmlEajdZU3k2M0RCRHd1dVFRIEhxbFlpbTQvTXVLdHVGQllXTVZjdmNBSk9MVjlMSkhFbFpVTjJPUjFiY05YOEFxamlxL3JBWmZMSjJqSzY5SVc3dkVMV0kxUUEzWWwgVTJqaXk5c01COStsRzVRRUxEemN1LzdVQVRBbm9NbWFyNmNHYWx6OGJXdGZQeDZhV29lQmJETkRSUVAyY3IxN0dSUDJPNXFwWUpxYyBnZ3UxZys1OEgwV01zcmU0Y1JScTV2RXpsNk0zVi9tWlRHd245ZndjLzB3NmdMWk1DN2RxQjExU2pET3A1WGxPMTJqVzY4c1haY3d4IHA2T3pILytpeHI5MjBmYVNvNjBzWG5TQ0RoUmhnWHJEVHVtSlJjSnFJWExEajhlTzJjc3psZGdyTHFEUG91V2RveFUwQ2NabGpyNXMgNDJEb0tQNmpxMHhOcGZHK2k0a0xncTdWRzhnRVpybGMyY1pjbk5RRk9sS1AvWFNmVGhkdU8wdDM5SzUyOUdmU1E2M2REZ0dicE9JNyBSeEFDcDJrRnJmS2ppK0MrUERTMytselNaS2x1VGRzdW1yYTA5OXBVWDgzRkN2U0N0bGtkT1F1ZXBobXdHdE5jZ21oTUsyZ3BjTUFGIDlCekZ5WFdCN2xWMXUzUk9UUlI2UUs5UEE3dGRMczNyajR5ditlZUwrZHFZUzFKVTZVS0tkbXNGVFFHZnVSUUFVWHBjb3hiVGJvWmggV2ZpTFU5K05acTg2TWYvVkNqcVp3QllLY3ZRaFU2Q3B2eDNoWElNZXJNaFEzeHRkR2xDN1F2WGVtZ21lUVZjdVFROEZ0YnZZZmgwZiA3anBxeHN5WkwzK0VFbW5pUG1xNTJzWHkxbnFsdnI1S3k3U2Q0Y0hEVHBTUTg4bWhDT1kxTi9zc1c4ZU03ZzhRc0V4Y3pUVlh1Z0R1IE9aSEVXM21wcDQ5OGdUWUszT29TeGMrUUZ2NnhxQUlYOVc3d243dGpHeENjRXNSaTA4UXFyaGwwWnA5NHJhclJXK1QyRFhyVzM1RmsgYm55YWZ6b3lKSnI0NWNVbVhnb1VvKzVvbXpjZlYvbTR2d09uR1FFc0kyQlZ0YzF3MGZMZUUybTg2SS9ZK1NjTFltQWpYbVNGY3p0YyBtbmRxWDRxdThDd0QzTWZVZVdkWkcyTGlLV2YvVTF0Q1FRdVZSUlptOGp2WEUreGRuT1Z1TFRUZTgyQjRFZGJrRlhRbXlHeEFWU0NJIHRjWkk4ODV3QWE1QWJxSDIzMllOOXJsdDBEb2tqbEZ5a2tjbFA4QlB4WjJyT1AvTUY3UkNpcE5XVGNPczIxOHY2OFdkZnF1NnJCa1UgelhjdWc4M0x4a2czeFRpRmRmVHo4Q1hCSHFUa2dWSFFFWDZlclhvRjFPeXBPaUFKcnRFeUhNTnRWVm0wcEhKQ0cyTWR1TlEwOEFJZiAraEtjWkhjaTIzUk53TzEyRW5lSEcvalNzaXJXY2pUaUhaakQxWjZoeGkvUGFDL0hiYkowR2kycEUzZzAycGpad01lRUFKM3g4VFpVIEJrdzhUT0JYODFTWmJIRldDMHJFV2JKK3ExTFRuajFZWGR1VW0xOG01THdxVWxHZEthZWU1cjZTd1d2dWFEa1k5aUJMMWNacXYrdVEgbmNabXJ2ZlBjRDIreUcwdlFsZjl1eDNXNEFBV01IUXZwWlI1aGlwSWdCQm55YWpmbTZNRUk4MlBoQmpaMll3ei82cGRrVTFNU2VzaiA5ZDRLaVlLREhqc090eUZTYXVCaXBxTFpQRDJETTByQlFhaU9oOFFRVmF2NC9IN08zYUdmc0pPcDZEZ214K1NZSEhuemFSVjlqckFLIEtnNDZjKzU4aktRaW9Ba2tLcGZsWVZPKzY5OHdTNmZqQW1sZ0R2UHgxRUtCdHUzTTIrOW1XdHhSdmhEZmUvbHBwZWQ2dDZRYTV3a0wgcTVtQzVoZlNSRmwyS2s2Z29ML0ZhdTh1eFkyMDFkT3NjMVhyWnY2RThNMlJYeWVwWDdNczA5MUV1R0xDQlNiRDJ6UDU2WHYzWWNLaCA5dlpNM25jNGJMeExYK29Gdk8wZjZRcmluUHZJWXovMDhpWFBnYXdzZ05YeEpNS3FEMmFJTEt1b2JLSzNWRHRNNktNU21zT0w4SEZlIHVMZDhGWUZEVVFTbkZ3aDBaeER5OUUwWUVrLzUvNDNvNUppa29RN2pRRE9NOGlqTFF6SFNEMU9GY1hyTVVRc1pHYlAyTDRXNExYQTggM0lNK2xxSlNLK2llanpDbHlNUmxwS0FMVlYzOHl5Snl6RkdYZHVUL1ByUmtKT3NTTmxyTFF0Z2hhc2N2Mm5QMExySlFheHA0NC85MyBIa1FldWhMQzZVVVl1R0ZvRU5jQjQrK1FlczdUQkh5LzIxWkxnYWhvTFl1UEZYcHBxTVFmSm1Cc3VrQXZJME4yalhaTmR2K0RWa1pHIDFHL3c4MXpPU2wvZnorMFlwbWtmb0crL3B4VjBlUWl2RDhSSkFRM1VLVlphS0xScVM1ZGdEOHNVMW9ZYXNHT1NmWnhpL0N6QUFPSjkgaTUrV1BFSnpBQUFBQUVsRlRrU3VRbUNDIiBoZWlnaHQ9IjYwIiB3aWR0aD0iNjAiIHN0eWxlPSJvdmVyZmxvdzp2aXNpYmxlIj4mI3hhOwkJCQkJCQk8L2ltYWdlPiYjeGE7CQkJCQkJPC9nPiYjeGE7CQkJCQk8L2c+JiN4YTsJCQkJPC9nPiYjeGE7CQkJPC9nPiYjeGE7CQk8L2c+JiN4YTsJPC9nPjxyZWN0IGlkPSJyZWN0NjI4NjIiIGNsaXAtcGF0aD0idXJsKCNTVkdJRF8yXykiIGhlaWdodD0iNjguMjUiIHdpZHRoPSIzOS43NSIgc3R5bGU9ImNsaXAtcnVsZTpldmVub2RkO2ZpbGw6I2ZmZmZmZjtmaWxsLXJ1bGU6ZXZlbm9kZCIgeT0iMTg5LjkyIiB4PSIzMTIuNjYiIHRyYW5zZm9ybT0idHJhbnNsYXRlKC0zMTEuOTEsLTE4OS4xNykiLz48cmVjdCBpZD0icmVjdDYyODY0IiBjbGlwLXBhdGg9InVybCgjU1ZHSURfMl8pIiBoZWlnaHQ9IjY4LjI1IiB3aWR0aD0iMzkuNzUiIHN0eWxlPSJmaWxsOm5vbmU7c3Ryb2tlOiM1NTZhOGE7c3Ryb2tlLXdpZHRoOjEuNTtzdHJva2UtbWl0ZXJsaW1pdDoxMCIgeT0iMTg5LjkyIiB4PSIzMTIuNjYiIHRyYW5zZm9ybT0idHJhbnNsYXRlKC0zMTEuOTEsLTE4OS4xNykiLz48cmVjdCBpZD0icmVjdDYyODY2IiBjbGlwLXBhdGg9InVybCgjU1ZHSURfMl8pIiBoZWlnaHQ9IjY2Ljc1IiB3aWR0aD0iMTkuNSIgc3R5bGU9ImNsaXAtcnVsZTpldmVub2RkO2ZpbGw6I2U1ZTVlNTtmaWxsLXJ1bGU6ZXZlbm9kZCIgeT0iMTkwLjY3IiB4PSIzMzIuMTYiIHRyYW5zZm9ybT0idHJhbnNsYXRlKC0zMTEuOTEsLTE4OS4xNykiLz48cmVjdCBpZD0icmVjdDYyODY4IiBjbGlwLXBhdGg9InVybCgjU1ZHSURfMl8pIiBoZWlnaHQ9IjIuMjUiIHdpZHRoPSIxOCIgc3R5bGU9ImNsaXAtcnVsZTpldmVub2RkO2ZpbGw6IzJiYzdmNDtmaWxsLXJ1bGU6ZXZlbm9kZCIgeT0iMjA3LjE3IiB4PSIzMTQuMTYiIHRyYW5zZm9ybT0idHJhbnNsYXRlKC0zMTEuOTEsLTE4OS4xNykiLz48cmVjdCBpZD0icmVjdDYyODcwIiBjbGlwLXBhdGg9InVybCgjU1ZHSURfMl8pIiBoZWlnaHQ9IjIuMjUiIHdpZHRoPSIxOCIgc3R5bGU9ImNsaXAtcnVsZTpldmVub2RkO2ZpbGw6IzJiYzdmNDtmaWxsLXJ1bGU6ZXZlbm9kZCIgeT0iMjAxLjkyIiB4PSIzMTQuMTYiIHRyYW5zZm9ybT0idHJhbnNsYXRlKC0zMTEuOTEsLTE4OS4xNykiLz48cmVjdCBpZD0icmVjdDYyODcyIiBjbGlwLXBhdGg9InVybCgjU1ZHSURfMl8pIiBoZWlnaHQ9IjIuMjUiIHdpZHRoPSIxOCIgc3R5bGU9ImNsaXAtcnVsZTpldmVub2RkO2ZpbGw6IzJiYzdmNDtmaWxsLXJ1bGU6ZXZlbm9kZCIgeT0iMTk2LjY3IiB4PSIzMTQuMTYiIHRyYW5zZm9ybT0idHJhbnNsYXRlKC0zMTEuOTEsLTE4OS4xNykiLz48cmVjdCBpZD0icmVjdDYyODc0IiBjbGlwLXBhdGg9InVybCgjU1ZHSURfMl8pIiBoZWlnaHQ9IjIuMjUiIHdpZHRoPSIxOS41IiBzdHlsZT0iY2xpcC1ydWxlOmV2ZW5vZGQ7ZmlsbDojNTU2YThhO2ZpbGwtcnVsZTpldmVub2RkIiB5PSIyMDcuMTciIHg9IjMzMi4xNiIgdHJhbnNmb3JtPSJ0cmFuc2xhdGUoLTMxMS45MSwtMTg5LjE3KSIvPjxyZWN0IGlkPSJyZWN0NjI4NzYiIGNsaXAtcGF0aD0idXJsKCNTVkdJRF8yXykiIGhlaWdodD0iMi4yNSIgd2lkdGg9IjE5LjUiIHN0eWxlPSJjbGlwLXJ1bGU6ZXZlbm9kZDtmaWxsOiM1NTZhOGE7ZmlsbC1ydWxlOmV2ZW5vZGQiIHk9IjIwMS45MiIgeD0iMzMyLjE2IiB0cmFuc2Zvcm09InRyYW5zbGF0ZSgtMzExLjkxLC0xODkuMTcpIi8+PHJlY3QgaWQ9InJlY3Q2Mjg3OCIgY2xpcC1wYXRoPSJ1cmwoI1NWR0lEXzJfKSIgaGVpZ2h0PSIyLjI1IiB3aWR0aD0iMTkuNSIgc3R5bGU9ImNsaXAtcnVsZTpldmVub2RkO2ZpbGw6IzU1NmE4YTtmaWxsLXJ1bGU6ZXZlbm9kZCIgeT0iMTk2LjY3IiB4PSIzMzIuMTYiIHRyYW5zZm9ybT0idHJhbnNsYXRlKC0zMTEuOTEsLTE4OS4xNykiLz48cmVjdCBpZD0icmVjdDYyODgwIiBjbGlwLXBhdGg9InVybCgjU1ZHSURfMl8pIiBoZWlnaHQ9IjIuMjUiIHdpZHRoPSIyLjI1IiBzdHlsZT0iY2xpcC1ydWxlOmV2ZW5vZGQ7ZmlsbDojNTU2YThhO2ZpbGwtcnVsZTpldmVub2RkIiB5PSIxOTYuNjciIHg9IjMxMy40MSIgdHJhbnNmb3JtPSJ0cmFuc2xhdGUoLTMxMS45MSwtMTg5LjE3KSIvPjxyZWN0IGlkPSJyZWN0NjI4ODIiIGNsaXAtcGF0aD0idXJsKCNTVkdJRF8yXykiIGhlaWdodD0iMi4yNSIgd2lkdGg9IjIuMjUiIHN0eWxlPSJjbGlwLXJ1bGU6ZXZlbm9kZDtmaWxsOiM1NTZhOGE7ZmlsbC1ydWxlOmV2ZW5vZGQiIHk9IjIwMS45MiIgeD0iMzEzLjQxIiB0cmFuc2Zvcm09InRyYW5zbGF0ZSgtMzExLjkxLC0xODkuMTcpIi8+PHJlY3QgaWQ9InJlY3Q2Mjg4NCIgY2xpcC1wYXRoPSJ1cmwoI1NWR0lEXzJfKSIgaGVpZ2h0PSIyLjI1IiB3aWR0aD0iMi4yNSIgc3R5bGU9ImNsaXAtcnVsZTpldmVub2RkO2ZpbGw6IzU1NmE4YTtmaWxsLXJ1bGU6ZXZlbm9kZCIgeT0iMjA3LjE3IiB4PSIzMTMuNDEiIHRyYW5zZm9ybT0idHJhbnNsYXRlKC0zMTEuOTEsLTE4OS4xNykiLz48cG9seWdvbiBpZD0icG9seWdvbjYyODg2IiBjbGlwLXBhdGg9InVybCgjU1ZHSURfMl8pIiBwb2ludHM9IjM1MS4xOCwyNTguMTggMzM0LjYzLDI1OC4xOCAzMjYuMzYsMjQzLjk0IDMzNC42MywyMjkuNzEgMzUxLjE4LDIyOS43MSAzNTkuNDUsMjQzLjk0ICIgc3R5bGU9ImNsaXAtcnVsZTpldmVub2RkO2ZpbGw6I2ZmZmZmZjtmaWxsLXJ1bGU6ZXZlbm9kZCIgdHJhbnNmb3JtPSJ0cmFuc2xhdGUoLTMxMS45MSwtMTg5LjE3KSIvPjxwb2x5Z29uIGlkPSJwb2x5Z29uNjI4ODgiIGNsaXAtcGF0aD0idXJsKCNTVkdJRF8yXykiIHBvaW50cz0iMzUxLjE4LDI1OC4xOCAzMzQuNjMsMjU4LjE4IDMyNi4zNiwyNDMuOTQgMzM0LjYzLDIyOS43MSAzNTEuMTgsMjI5LjcxIDM1OS40NSwyNDMuOTQgIiBzdHlsZT0iZmlsbDpub25lO3N0cm9rZTojZmZjMDAwO3N0cm9rZS13aWR0aDoxLjU7c3Ryb2tlLW1pdGVybGltaXQ6MTAiIHRyYW5zZm9ybT0idHJhbnNsYXRlKC0zMTEuOTEsLTE4OS4xNykiLz48ZyBpZD0iZzYyOTI2IiBjbGlwLXBhdGg9InVybCgjU1ZHSURfMl8pIiB0cmFuc2Zvcm09InRyYW5zbGF0ZSgtMzExLjkxLC0xODkuMTcpIj4mI3hhOwkJPGRlZnMgaWQ9ImRlZnM2Mjg5MSI+JiN4YTsJCQk8cmVjdCBoZWlnaHQ9IjIxLjgzIiB3aWR0aD0iMjEuODA5OTk5IiB5PSIyMzMuMDMiIHg9IjMzMiIgaWQ9IlNWR0lEXzEzXyIvPiYjeGE7CQk8L2RlZnM+JiN4YTsJCTxjbGlwUGF0aCBpZD0iU1ZHSURfMTRfIj4mI3hhOwkJCTx1c2UgaGVpZ2h0PSIxMDAlIiB3aWR0aD0iMTAwJSIgeT0iMCIgeD0iMCIgaWQ9InVzZTYyODkzIiBzdHlsZT0ib3ZlcmZsb3c6dmlzaWJsZSIgeGxpbms6aHJlZj0iI1NWR0lEXzEzXyIvPiYjeGE7CQk8L2NsaXBQYXRoPiYjeGE7CQk8ZyBpZD0iZzYyOTI0IiBjbGlwLXBhdGg9InVybCgjU1ZHSURfMTRfKSI+JiN4YTsJCQk8ZGVmcyBpZD0iZGVmczYyODk3Ij4mI3hhOwkJCQk8cmVjdCBoZWlnaHQ9IjIxLjgzIiB3aWR0aD0iMjEuODA5OTk5IiB5PSIyMzMuMDMiIHg9IjMzMiIgaWQ9IlNWR0lEXzE1XyIvPiYjeGE7CQkJPC9kZWZzPiYjeGE7CQkJPGNsaXBQYXRoIGlkPSJTVkdJRF8xNl8iPiYjeGE7CQkJCTx1c2UgaGVpZ2h0PSIxMDAlIiB3aWR0aD0iMTAwJSIgeT0iMCIgeD0iMCIgaWQ9InVzZTYyODk5IiBzdHlsZT0ib3ZlcmZsb3c6dmlzaWJsZSIgeGxpbms6aHJlZj0iI1NWR0lEXzE1XyIvPiYjeGE7CQkJPC9jbGlwUGF0aD4mI3hhOwkJCTxnIGlkPSJnNjI5MjIiIGNsaXAtcGF0aD0idXJsKCNTVkdJRF8xNl8pIj4mI3hhOwkJCQk8ZGVmcyBpZD0iZGVmczYyOTAzIj4mI3hhOwkJCQkJPHJlY3QgaGVpZ2h0PSIyMS44MyIgd2lkdGg9IjIxLjgwOTk5OSIgeT0iMjMzLjAzIiB4PSIzMzIiIGlkPSJTVkdJRF8xN18iLz4mI3hhOwkJCQk8L2RlZnM+JiN4YTsJCQkJPGNsaXBQYXRoIGlkPSJTVkdJRF8xOF8iPiYjeGE7CQkJCQk8dXNlIGhlaWdodD0iMTAwJSIgd2lkdGg9IjEwMCUiIHk9IjAiIHg9IjAiIGlkPSJ1c2U2MjkwNSIgc3R5bGU9Im92ZXJmbG93OnZpc2libGUiIHhsaW5rOmhyZWY9IiNTVkdJRF8xN18iLz4mI3hhOwkJCQk8L2NsaXBQYXRoPiYjeGE7CQkJCTxnIGlkPSJnNjI5MjAiIGNsaXAtcGF0aD0idXJsKCNTVkdJRF8xOF8pIj4mI3hhOwkJCQkJPGcgaWQ9Imc2MjkxOCI+JiN4YTsJCQkJCQk8ZGVmcyBpZD0iZGVmczYyOTA5Ij4mI3hhOwkJCQkJCQk8cmVjdCBoZWlnaHQ9IjIxLjgzIiB3aWR0aD0iMjEuODA5OTk5IiB5PSIyMzMuMDMiIHg9IjMzMiIgaWQ9IlNWR0lEXzE5XyIvPiYjeGE7CQkJCQkJPC9kZWZzPiYjeGE7CQkJCQkJPGNsaXBQYXRoIGlkPSJTVkdJRF8yMF8iPiYjeGE7CQkJCQkJCTx1c2UgaGVpZ2h0PSIxMDAlIiB3aWR0aD0iMTAwJSIgeT0iMCIgeD0iMCIgaWQ9InVzZTYyOTExIiBzdHlsZT0ib3ZlcmZsb3c6dmlzaWJsZSIgeGxpbms6aHJlZj0iI1NWR0lEXzE5XyIvPiYjeGE7CQkJCQkJPC9jbGlwUGF0aD4mI3hhOwkJCQkJCTxnIGlkPSJnNjI5MTYiIGNsaXAtcGF0aD0idXJsKCNTVkdJRF8yMF8pIj4mI3hhOwkJCQkJCQkmI3hhOwkJCQkJCQkJPGltYWdlIGlkPSJpbWFnZTYyOTE0IiB0cmFuc2Zvcm09Im1hdHJpeCgwLjM2MzYsMCwwLDAuMzYzOSwzMzIsMjMzLjAyNzIpIiB4bGluazpocmVmPSJkYXRhOmltYWdlL3BuZztiYXNlNjQsaVZCT1J3MEtHZ29BQUFBTlNVaEVVZ0FBQUQwQUFBQS9DQVlBQUFCVHFzRGlBQUFBQ1hCSVdYTUFBQjV6QUFBZWN3RkNtQ29YQUFBQSBHWFJGV0hSVGIyWjBkMkZ5WlFCQlpHOWlaU0JKYldGblpWSmxZV1I1Y2NsbFBBQUFCOXhKUkVGVWVOcnNXbnRzVkZVZS9zNjl0ME9uIGp4bW0wNmFDNEtOUmxCWFJsV3JRVFpkSDAxZ1JsR2pFckx0R0U0bU5HbDJmOGZXSCtwZFJFOXhveklaZ05Mc2FJNDM0d2hCckh4SUYgZ1pWc0lDZ3FLaUJZU21tbDAya0xIV2JtSHI4enJVbDN2UmQ2Nzh5WnFiRW5PWE43ZSsrYzMvM3U3L1g5Zm1lQTMrRVErUkFpbjRDSSAxYUdNd3NvTkF5V1VHb0NFT1NvOUpTVVNQQitTQnVMaGhUZ3V4RzhZZEU4cnlnTW1waGtTMVFSMFBvSE5KcUNabEJybDM4VThTdDUyIGpLQ1A4UGdEcjMzSjQzYzJ6KzFoZEVXdXd2QnZCblJzSXpVcVVaTzJNZDgwc0pSZy9zUVpHWmRWU1B6SU43RlJwdkdCTUxBem1jQysgYUNNdFlhS0M3bXFCV1JwQWpSUlliQUJOL05mRkJPdExCc0duZUdpMzAxakRGYmFGRnFPVEM4a0pCVHJXamlBQjF0Sm43K2ZwdFg3QiBPb0FmNWx3amtsalQxWTJ2WnQyY2VSbUZCOTNYZ2pJamdFWkQ0Qm1DcmRFU0RDVTJwWko0YkFqWU9xTUJ5WUtDN205bk5BWnVNRXc4IFB3Ni9WZVo1UERNbEgzekVHb280U3ptbmpBUDROeWtiZHh6ZWkwOW1yMFM2SUtEM3ZRTXJPalZqeWk5elRqM0pyVlFRRHFVbHVobmcgOWhINVFZS09VN3FodnNmekdwN1BwR3RVODc3cG5JR1RBTi9ENFBhM3lKWFk3dGZIc3dMZDE0cExyU0tzeTZRaDU2SDg3M3Vtb0syMiBqWGRqQ1h4NjFsWDR5UUdJaUhkZ0JnelVjNjNsRElKL3hNaWF3Z1g0cDNZY040V3Z3WTk1QlQzWWdRcCsrMDArYUlQYkxkTEdGaHQ0IFB0U0RGckVDOXJoOHR4bkJlQlIvRlNhYUdDTXVHalgvWDQxMENxdmlDVHcyYzRuM2RPWXZuVFJEREZiaURqN1lTeTYzREJEd3V1UVEgSHFsWWltNC9NdUt0dUZCWVdNVmN2Y0FKT0xWOUxKSEVsWlVOMk9SMWJjTlg4QXFqaXEvckFaZkxKMmpLNjlJVzd2RUxXSTFRQTNZbCBVMmppeTlzTUI5K2xHNVFFTER6Y3UvN1VBVEFub01tYXI2Y0dhbHo4Yld0ZlB4NmFXb2VCYkRORFJRUDJjcjE3R1JQMk81cXBZSnFjIGdndTFnKzU4SDBXTXNyZTRjUlJxNXZFemw2TTNWL21aVEd3bjlmd2MvMHc2Z0xaTUM3ZHFCMTFTakRPcDVYbE8xMmpXNjhzWFpjd3ggcDZPekgvK2l4cjkyMGZhU282MHNYblNDRGhSaGdYckRUdW1KUmNKcUlYTERqOGVPMmNzemxkZ3JMcURQb3VXZG94VTBDY1psanI1cyA0MkRvS1A2anEweE5wZkcraTRrTGdxN1ZHOGdFWnJsYzJjWmNuTlFGT2xLUC9YU2ZUaGR1TzB0MzlLNTI5R2ZTUTYzZERnR2JwT0k3IFJ4QUNwMmtGcmZLamkrQytQRFMzK2x6U1pLbHVUZHN1bXJhMDk5cFVYODNGQ3ZTQ3Rsa2RPUXVlcGhtd0d0TmNnbWhNSzJncGNNQUYgOUJ6RnlYV0I3bFYxdTNST1RSUjZRSzlQQTd0ZExzM3JqNHl2K2VlTCtkcVlTMUpVNlVLS2Rtc0ZUUUdmdVJRQVVYcGNveGJUYm9aaCBXZmlMVTkrTlpxODZNZi9WQ2pxWndCWUtjdlFoVTZDcHZ4M2hYSU1lck1oUTN4dGRHbEM3UXZYZW1nbWVRVmN1UVE4RnRidllmaDBmIDdqcHF4c3laTDMrRUVtbmlQbXE1MnNYeTFucWx2cjVLeTdTZDRjSERUcFNRODhtaENPWTFOL3NzVzhlTTdnOFFzRXhjelRWWHVnRHUgT1pIRVczbXBwNDk4Z1RZSzNPb1N4YytRRnY2eHFBSVg5Vzd3bjd0akd4Q2NFc1JpMDhRcXJobDBacDk0cmFyUlcrVDJEWHJXMzVGayBibnlhZnpveUpKcjQ1Y1VtWGdvVW8rNW9temNmVi9tNHZ3T25HUUVzSTJCVnRjMXcwZkxlRTJtODZJL1krU2NMWW1BalhtU0ZjenRjIG1uZHFYNHF1OEN3RDNNZlVlV2RaRzJMaUtXZi9VMXRDUVF1VlJSWm04anZYRSt4ZG5PVnVMVFRlODJCNEVkYmtGWFFteUd4QVZTQ0kgdGNaSTg4NXdBYTVBYnFIMjMyWU45cmx0MERva2psRnlra2NsUDhCUHhaMnJPUC9NRjdSQ2lwTldUY09zMjE4djY4V2RmcXU2ckJrVSB6WGN1ZzgzTHhrZzN4VGlGZGZUejhDWEJIcVRrZ1ZIUUVYNmVyWG9GMU95cE9pQUpydEV5SE1OdFZWbTBwSEpDRzJNZHVOUTA4QUlmICtoS2NaSGNpMjNSTndPMTJFbmVIRy9qU3NpcldjalRpSFpqRDFaNmh4aS9QYUMvSGJiSjBHaTJwRTNnMDJwalp3TWVFQUozeDhUWlUgQmt3OFRPQlg4MVNaYkhGV0MwckVXYkorcTFMVG5qMVlYZHVVbTE4bTVMd3FVbEdkS2FlZTVyNlN3V3Z1YURrWTlpQkwxY1pxdit1USBuY1ptcnZmUGNEMit5RzB2UWxmOXV4M1c0QUFXTUhRdnBaUjVoaXBJZ0JCbnlhamZtNk1FSTgyUGhCaloyWXd6LzZwZGtVMU1TZXNqIDlkNEtpWUtESGpzT3R5RlNhdUJpcHFMWlBEMkRNMHJCUWFpT2g4UVFWYXY0L0g3TzNhR2ZzSk9wNkRnbXgrU1lISG56YVJWOWpyQUsgS2c0NmMrNThqS1Fpb0Fra0twZmxZVk8rNjk4d1M2ZmpBbWxnRHZQeDFFS0J0dTNNMis5bVd0eFJ2aERmZS9scHBlZDZ0NlFhNXdrTCBxNW1DNWhmU1JGbDJLazZnb0wvRmF1OHV4WTIwMWRPc2MxWHJadjZFOE0yUlh5ZXBYN01zMDkxRXVHTENCU2JEMnpQNTZYdjNZY0toIDl2Wk0zbmM0Ykx4TFgrb0Z2TzBmNlFyaW5QdklZei8wOGlYUGdhd3NnTlh4Sk1LcUQyYUlMS3VvYktLM1ZEdE02S01TbXNPTDhIRmUgdUxkOEZZRkRVUVNuRndoMFp4RHk5RTBZRWsvNS80M281Smlrb1E3alFET004aWpMUXpIU0QxT0ZjWHJNVVFzWkdiUDJMNFc0TFhBOCAzSU0rbHFKU0sraWVqekNseU1SbHBLQUxWVjM4eXlKeXpGR1hkdVQvUHJSa0pPc1NObHJMUXRnaGFzY3YyblAwTHJKUWF4cDQ0LzkzIEhrUWV1aExDNlVVWXVHRm9FTmNCNCsrUWVzN1RCSHkvMjFaTGdhaG9MWXVQRlhwcHFNUWZKbUJzdWtBdkkwTjJqWFpOZHYrRFZrWkcgMUcvdzgxek9TbC9meiswWXBta2ZvRysvcHhWMGVRaXZEOFJKQVEzVUtWWmFLTFJxUzVkZ0Q4c1Uxb1lhc0dPU2ZaeGkvQ3pBQU9KOSBpNStXUEVKekFBQUFBRWxGVGtTdVFtQ0MiIGhlaWdodD0iNjAiIHdpZHRoPSI2MCIgc3R5bGU9Im92ZXJmbG93OnZpc2libGUiPiYjeGE7CQkJCQkJCTwvaW1hZ2U+JiN4YTsJCQkJCQk8L2c+JiN4YTsJCQkJCTwvZz4mI3hhOwkJCQk8L2c+JiN4YTsJCQk8L2c+JiN4YTsJCTwvZz4mI3hhOwk8L2c+JiN4YTs8L3N2Zz4=;" parent="1" vertex="1">
          <mxGeometry x="230" y="190" width="48" height="70" as="geometry" />
        </mxCell>
        <mxCell id="mqUPXLCxFS9QpvWDTxzc-5" value="生成中心2" style="shape=image;verticalLabelPosition=bottom;labelBackgroundColor=#ffffff;verticalAlign=top;aspect=fixed;imageAspect=0;image=data:image/svg+xml,PHN2ZyB4bWxuczpjYz0iaHR0cDovL2NyZWF0aXZlY29tbW9ucy5vcmcvbnMjIiB4bWxuczpkYz0iaHR0cDovL3B1cmwub3JnL2RjL2VsZW1lbnRzLzEuMS8iIHhtbG5zOmlua3NjYXBlPSJodHRwOi8vd3d3Lmlua3NjYXBlLm9yZy9uYW1lc3BhY2VzL2lua3NjYXBlIiB4bWxuczpyZGY9Imh0dHA6Ly93d3cudzMub3JnLzE5OTkvMDIvMjItcmRmLXN5bnRheC1ucyMiIHhtbG5zOnNvZGlwb2RpPSJodHRwOi8vc29kaXBvZGkuc291cmNlZm9yZ2UubmV0L0RURC9zb2RpcG9kaS0wLmR0ZCIgeG1sbnM6c3ZnPSJodHRwOi8vd3d3LnczLm9yZy8yMDAwL3N2ZyIgeG1sbnM9Imh0dHA6Ly93d3cudzMub3JnLzIwMDAvc3ZnIiB4bWxuczp4bGluaz0iaHR0cDovL3d3dy53My5vcmcvMTk5OS94bGluayIgdmVyc2lvbj0iMS4xIiBpZD0ic3ZnMjU3ODY4IiBpbmtzY2FwZTp2ZXJzaW9uPSIwLjkyLjMgKDI0MDU1NDYsIDIwMTgtMDMtMTEpIiBzb2RpcG9kaTpkb2NuYW1lPSJleGNoYW5nZV9zZXJ2ZXIuc3ZnIiB4PSIwcHgiIHk9IjBweCIgdmlld0JveD0iMCAwIDQ4LjQxIDY5Ljc2IiBzdHlsZT0iZW5hYmxlLWJhY2tncm91bmQ6bmV3IDAgMCA0OC40MSA2OS43NjsiIHhtbDpzcGFjZT0icHJlc2VydmUiPiYjeGE7PHNvZGlwb2RpOm5hbWVkdmlldyBib3JkZXJjb2xvcj0iIzY2NjY2NiIgYm9yZGVyb3BhY2l0eT0iMSIgZml0LW1hcmdpbi1ib3R0b209IjAiIGZpdC1tYXJnaW4tbGVmdD0iMCIgZml0LW1hcmdpbi1yaWdodD0iMCIgZml0LW1hcmdpbi10b3A9IjAiIGdyaWR0b2xlcmFuY2U9IjEwIiBndWlkZXRvbGVyYW5jZT0iMTAiIGlkPSJuYW1lZHZpZXcyNTc4NzAiIGlua3NjYXBlOmN1cnJlbnQtbGF5ZXI9InN2ZzI1Nzg2OCIgaW5rc2NhcGU6Y3g9IjM1Ljc2ODE0NCIgaW5rc2NhcGU6Y3k9IjM1LjQxNDY4IiBpbmtzY2FwZTpwYWdlb3BhY2l0eT0iMCIgaW5rc2NhcGU6cGFnZXNoYWRvdz0iMiIgaW5rc2NhcGU6d2luZG93LWhlaWdodD0iMTAxNyIgaW5rc2NhcGU6d2luZG93LW1heGltaXplZD0iMSIgaW5rc2NhcGU6d2luZG93LXdpZHRoPSIxOTIwIiBpbmtzY2FwZTp3aW5kb3cteD0iLTgiIGlua3NjYXBlOndpbmRvdy15PSItOCIgaW5rc2NhcGU6em9vbT0iNy4zOTc4MTI3IiBvYmplY3R0b2xlcmFuY2U9IjEwIiBwYWdlY29sb3I9IiNmZmZmZmYiIHNob3dncmlkPSJmYWxzZSI+JiN4YTsJPC9zb2RpcG9kaTpuYW1lZHZpZXc+JiN4YTs8ZyBpZD0iZzI1Nzg2NiIgdHJhbnNmb3JtPSJ0cmFuc2xhdGUoLTAuNzUsLTAuNzUwMDAxNDEpIj4mI3hhOwk8dGl0bGUgaWQ9InRpdGxlMjU3NzY0Ij5QYWdlLTE8L3RpdGxlPiYjeGE7CTxnIGlkPSJncm91cDExMjQwLTEiIHRyYW5zZm9ybT0idHJhbnNsYXRlKDEuNSwtMTguMTQwMikiPiYjeGE7CQk8dGl0bGUgaWQ9InRpdGxlMjU3NzY2Ij5FeGNoYW5nZSBTZXJ2ZXI8L3RpdGxlPiYjeGE7CQk8ZyBpZD0iZ3JvdXAxMTI0MS0yIj4mI3hhOwkJCTx0aXRsZSBpZD0idGl0bGUyNTc3NjgiPkdlbmVyaWMgU2VydmljZS4xNjM0MTwvdGl0bGU+JiN4YTsJCQk8ZyBpZD0iZ3JvdXAxMTI0Mi0zIiB0cmFuc2Zvcm09InRyYW5zbGF0ZSgwLC0wLjAwNzM5ODc2KSI+JiN4YTsJCQkJPHRpdGxlIGlkPSJ0aXRsZTI1Nzc3MCI+ZzE1NDMzLjExNzIxPC90aXRsZT4mI3hhOwkJCQk8ZyBpZD0ic2hhcGUxMTI0My00Ij4mI3hhOwkJCQkJPHRpdGxlIGlkPSJ0aXRsZTI1Nzc3MiI+cmVjdDE1NDA1PC90aXRsZT4mI3hhOwkJCQkJJiN4YTsJCQkJCQk8cmVjdCBpZD0icmVjdDI1Nzc3NCIgeD0iMCIgeT0iMTkuNjUiIHN0eWxlPSJmaWxsOiNGRkZGRkY7c3Ryb2tlOiM1NTZBOEE7c3Ryb2tlLXdpZHRoOjEuNTtzdHJva2UtbWl0ZXJsaW1pdDozOyIgd2lkdGg9IjM5Ljc1IiBoZWlnaHQ9IjY4LjI1Ii8+JiN4YTsJCQkJPC9nPiYjeGE7CQkJCTxnIGlkPSJncm91cDExMjQ0LTYiIHRyYW5zZm9ybT0idHJhbnNsYXRlKDEuNSwtMC43NSkiPiYjeGE7CQkJCQk8dGl0bGUgaWQ9InRpdGxlMjU3Nzc3Ij5nMTU0MjU8L3RpdGxlPiYjeGE7CQkJCQk8ZyBpZD0ic2hhcGUxMTI0NS03IiB0cmFuc2Zvcm09InRyYW5zbGF0ZSgxOCkiPiYjeGE7CQkJCQkJPHRpdGxlIGlkPSJ0aXRsZTI1Nzc3OSI+cmVjdDE1NDA3PC90aXRsZT4mI3hhOwkJCQkJCTxyZWN0IGlkPSJyZWN0MjU3NzgxIiB4PSIwIiB5PSIyMS4xNSIgc3R5bGU9ImZpbGw6I0U1RTVFNTsiIHdpZHRoPSIxOS41IiBoZWlnaHQ9IjY2Ljc1Ii8+JiN4YTsJCQkJCTwvZz4mI3hhOwkJCQkJPGcgaWQ9InNoYXBlMTEyNDYtOSIgdHJhbnNmb3JtPSJ0cmFuc2xhdGUoMCwtNDgpIj4mI3hhOwkJCQkJCTx0aXRsZSBpZD0idGl0bGUyNTc3ODQiPnJlY3QxNTQwOTwvdGl0bGU+JiN4YTsJCQkJCQk8cmVjdCBpZD0icmVjdDI1Nzc4NiIgeD0iMCIgeT0iODUuNjUiIHN0eWxlPSJmaWxsOiMyQkM3RjQ7IiB3aWR0aD0iMTgiIGhlaWdodD0iMi4yNSIvPiYjeGE7CQkJCQk8L2c+JiN4YTsJCQkJCTxnIGlkPSJzaGFwZTExMjQ3LTExIiB0cmFuc2Zvcm09InRyYW5zbGF0ZSgwLC01OC41KSI+JiN4YTsJCQkJCQk8dGl0bGUgaWQ9InRpdGxlMjU3Nzg5Ij5wb2x5Z29uMTU0MTE8L3RpdGxlPiYjeGE7CQkJCQkJPHJlY3QgaWQ9InJlY3QyNTc3OTEiIHg9IjAiIHk9Ijg1LjY1IiBzdHlsZT0iZmlsbDpub25lOyIgd2lkdGg9IjI3IiBoZWlnaHQ9IjIuMjUiLz4mI3hhOwkJCQkJPC9nPiYjeGE7CQkJCQk8ZyBpZD0ic2hhcGUxMTI0OC0xMyIgdHJhbnNmb3JtPSJ0cmFuc2xhdGUoMCwtNTguNSkiPiYjeGE7CQkJCQkJPHRpdGxlIGlkPSJ0aXRsZTI1Nzc5NCI+cG9seWxpbmUxNTQxMzwvdGl0bGU+JiN4YTsJCQkJCQk8cmVjdCBpZD0icmVjdDI1Nzc5NiIgeD0iMCIgeT0iODUuNjUiIHN0eWxlPSJmaWxsOm5vbmU7IiB3aWR0aD0iMjciIGhlaWdodD0iMi4yNSIvPiYjeGE7CQkJCQk8L2c+JiN4YTsJCQkJCTxnIGlkPSJzaGFwZTExMjQ5LTE1IiB0cmFuc2Zvcm09InRyYW5zbGF0ZSgwLC01My4yNSkiPiYjeGE7CQkJCQkJPHRpdGxlIGlkPSJ0aXRsZTI1Nzc5OSI+cmVjdDE1NDE1PC90aXRsZT4mI3hhOwkJCQkJCTxyZWN0IGlkPSJyZWN0MjU3ODAxIiB4PSIwIiB5PSI4NS42NSIgc3R5bGU9ImZpbGw6IzJCQzdGNDsiIHdpZHRoPSIxOCIgaGVpZ2h0PSIyLjI1Ii8+JiN4YTsJCQkJCTwvZz4mI3hhOwkJCQkJPGcgaWQ9InNoYXBlMTEyNTAtMTciIHRyYW5zZm9ybT0idHJhbnNsYXRlKDAsLTU4LjUpIj4mI3hhOwkJCQkJCTx0aXRsZSBpZD0idGl0bGUyNTc4MDQiPnJlY3QxNTQxNzwvdGl0bGU+JiN4YTsJCQkJCQk8cmVjdCBpZD0icmVjdDI1NzgwNiIgeD0iMCIgeT0iODUuNjUiIHN0eWxlPSJmaWxsOiMyQkM3RjQ7IiB3aWR0aD0iMTgiIGhlaWdodD0iMi4yNSIvPiYjeGE7CQkJCQk8L2c+JiN4YTsJCQkJCTxnIGlkPSJzaGFwZTExMjUxLTE5IiB0cmFuc2Zvcm09InRyYW5zbGF0ZSgxOCwtNDgpIj4mI3hhOwkJCQkJCTx0aXRsZSBpZD0idGl0bGUyNTc4MDkiPnJlY3QxNTQxOTwvdGl0bGU+JiN4YTsJCQkJCQk8cmVjdCBpZD0icmVjdDI1NzgxMSIgeD0iMCIgeT0iODUuNjUiIHN0eWxlPSJmaWxsOiM1NTZBOEE7IiB3aWR0aD0iMTkuNSIgaGVpZ2h0PSIyLjI1Ii8+JiN4YTsJCQkJCTwvZz4mI3hhOwkJCQkJPGcgaWQ9InNoYXBlMTEyNTItMjEiIHRyYW5zZm9ybT0idHJhbnNsYXRlKDE4LC01My4yNSkiPiYjeGE7CQkJCQkJPHRpdGxlIGlkPSJ0aXRsZTI1NzgxNCI+cmVjdDE1NDIxPC90aXRsZT4mI3hhOwkJCQkJCTxyZWN0IGlkPSJyZWN0MjU3ODE2IiB4PSIwIiB5PSI4NS42NSIgc3R5bGU9ImZpbGw6IzU1NkE4QTsiIHdpZHRoPSIxOS41IiBoZWlnaHQ9IjIuMjUiLz4mI3hhOwkJCQkJPC9nPiYjeGE7CQkJCQk8ZyBpZD0ic2hhcGUxMTI1My0yMyIgdHJhbnNmb3JtPSJ0cmFuc2xhdGUoMTgsLTU4LjUpIj4mI3hhOwkJCQkJCTx0aXRsZSBpZD0idGl0bGUyNTc4MTkiPnJlY3QxNTQyMzwvdGl0bGU+JiN4YTsJCQkJCQk8cmVjdCBpZD0icmVjdDI1NzgyMSIgeD0iMCIgeT0iODUuNjUiIHN0eWxlPSJmaWxsOiM1NTZBOEE7IiB3aWR0aD0iMTkuNSIgaGVpZ2h0PSIyLjI1Ii8+JiN4YTsJCQkJCTwvZz4mI3hhOwkJCQk8L2c+JiN4YTsJCQkJPGcgaWQ9InNoYXBlMTEyNTQtMjUiIHRyYW5zZm9ybT0idHJhbnNsYXRlKDAuNzUsLTU5LjI1KSI+JiN4YTsJCQkJCTx0aXRsZSBpZD0idGl0bGUyNTc4MjUiPnJlY3QxNTQyNzwvdGl0bGU+JiN4YTsJCQkJCTxyZWN0IGlkPSJyZWN0MjU3ODI3IiB4PSIwIiB5PSI4NS42NSIgc3R5bGU9ImZpbGw6IzU1NkE4QTsiIHdpZHRoPSIyLjI1IiBoZWlnaHQ9IjIuMjUiLz4mI3hhOwkJCQk8L2c+JiN4YTsJCQkJPGcgaWQ9InNoYXBlMTEyNTUtMjciIHRyYW5zZm9ybT0idHJhbnNsYXRlKDAuNzUsLTU0KSI+JiN4YTsJCQkJCTx0aXRsZSBpZD0idGl0bGUyNTc4MzAiPnJlY3QxNTQyOTwvdGl0bGU+JiN4YTsJCQkJCTxyZWN0IGlkPSJyZWN0MjU3ODMyIiB4PSIwIiB5PSI4NS42NSIgc3R5bGU9ImZpbGw6IzU1NkE4QTsiIHdpZHRoPSIyLjI1IiBoZWlnaHQ9IjIuMjUiLz4mI3hhOwkJCQk8L2c+JiN4YTsJCQkJPGcgaWQ9InNoYXBlMTEyNTYtMjkiIHRyYW5zZm9ybT0idHJhbnNsYXRlKDAuNzUsLTQ4Ljc1KSI+JiN4YTsJCQkJCTx0aXRsZSBpZD0idGl0bGUyNTc4MzUiPnJlY3QxNTQzMTwvdGl0bGU+JiN4YTsJCQkJCTxyZWN0IGlkPSJyZWN0MjU3ODM3IiB4PSIwIiB5PSI4NS42NSIgc3R5bGU9ImZpbGw6IzU1NkE4QTsiIHdpZHRoPSIyLjI1IiBoZWlnaHQ9IjIuMjUiLz4mI3hhOwkJCQk8L2c+JiN4YTsJCQk8L2c+JiN4YTsJCQk8ZyBpZD0ic2hhcGUxMTI1Ny0zMSIgdHJhbnNmb3JtPSJ0cmFuc2xhdGUoMTMuNjk4MykiPiYjeGE7CQkJCTx0aXRsZSBpZD0idGl0bGUyNTc4NDEiPnBvbHlnb24xNTQzNS4xMTczNzwvdGl0bGU+JiN4YTsJCQkJJiN4YTsJCQkJCTxwYXRoIGlkPSJwYXRoMjU3ODQzIiBpbmtzY2FwZTpjb25uZWN0b3ItY3VydmF0dXJlPSIwIiBzdHlsZT0iZmlsbDojRkZGRkZGO3N0cm9rZTojMjA3NUI4O3N0cm9rZS13aWR0aDoxLjU7c3Ryb2tlLW1pdGVybGltaXQ6MzsiIGQ9IiAgICAgIE04LjI3LDg3LjlMMCw3My42Nmw4LjI3LTE0LjIzaDE2LjU1bDguMjcsMTQuMjNMMjQuODIsODcuOUg4LjI3eiIvPiYjeGE7CQkJPC9nPiYjeGE7CQk8L2c+JiN4YTsJCTxnIGlkPSJncm91cDExMjU4LTMzIiB0cmFuc2Zvcm09InRyYW5zbGF0ZSgyMC43Njg0LC00LjkzNzU5KSI+JiN4YTsJCQk8dGl0bGUgaWQ9InRpdGxlMjU3ODQ3Ij5FeGNoYW5nZTwvdGl0bGU+JiN4YTsJCQk8ZyBpZD0ic2hhcGUxMTI1OS0zNCI+JiN4YTsJCQkJPHRpdGxlIGlkPSJ0aXRsZTI1Nzg0OSI+U2hlZXQuMTEyNTk8L3RpdGxlPiYjeGE7CQkJCTxwYXRoIGlkPSJwYXRoMjU3ODUxIiBpbmtzY2FwZTpjb25uZWN0b3ItY3VydmF0dXJlPSIwIiBzdHlsZT0iZmlsbDojMjc3M0JBOyIgZD0iTTE5LjMzLDcyLjQzaC04LjE0di0zLjU2TDAsNzAuOHYxNS4xNiAgICAgIGwxMS4xOSwxLjk0di0zLjMxaDguMTRjMC4yNiwwLDAuNTEtMC4yLDAuNTEtMC41MVY3Mi44OUMxOS44NCw3Mi42OCwxOS41OSw3Mi40MywxOS4zMyw3Mi40M3ogTTYuOTcsODEuODRsLTMtMC4yNXYtNi40MSAgICAgIGwyLjgtMC4yMXYxLjI4TDUuMDQsNzYuM3YxLjQ3aDEuNzN2MS4yMkg1LjA0djEuNDhsMS45MywwLjFMNi45Nyw4MS44NHogTTE5LjE4LDgzLjk4aC03Ljk5di0wLjg2aDAuNzIgICAgICBjMC4yLDAsMC4zNS0wLjE2LDAuNjYtMC41MWMwLjUxLTAuNjEsMS4yMi0xLjU4LDEuNjgtMi4zNGMwLjItMC4zMSwwLjM1LTAuNzIsMC40LTAuNzdjMCwwLDAtMC4wNS0wLjA1LTAuMWwtMC4xLTAuMDVoLTAuMSAgICAgIGMwLDAtMi4xOSwyLjI0LTIuNDQsMi40OWMtMC4wNSwwLjA1LTAuMjEsMC4wNS0wLjI2LDAuMDVoLTAuNDZ2LTMuMjVjMC4yNiwwLjE1LDAuNjEsMC40LDAuODIsMC41MWMwLjMsMC4yLDAuNzEsMC4zNSwwLjc2LDAuNCAgICAgIGMwLDAsMC4wNSwwLDAuMS0wLjA1bDAuMS0wLjF2LTAuMWMwLDAtMS4wMS0xLjAyLTEuNzgtMS43M3YtMi4yNGgwLjg3YzAuMDUsMCwwLjEsMCwwLjE1LDAuMDVsMC41MSwwLjUxYzAuMDUsMCwwLjA1LDAsMC4xLDAgICAgICBsMC40MS0wLjYxYzAtMC4wNSwwLTAuMSwwLTAuMTVjMCwwLTAuOTItMC44Mi0wLjk3LTAuOTJjLTAuMDUtMC4wNS0wLjEtMC4xLTAuMy0wLjFoLTAuNzd2LTAuOTdoNy45OXYxMC44NEwxOS4xOCw4My45OHoiLz4mI3hhOwkJCTwvZz4mI3hhOwkJCTxnIGlkPSJzaGFwZTExMjYwLTM2IiB0cmFuc2Zvcm09InRyYW5zbGF0ZSgxNC4xOTUsLTQuODg0MzEpIj4mI3hhOwkJCQk8dGl0bGUgaWQ9InRpdGxlMjU3ODU0Ij5TaGVldC4xMTI2MDwvdGl0bGU+JiN4YTsJCQkJPHBhdGggaWQ9InBhdGgyNTc4NTYiIGlua3NjYXBlOmNvbm5lY3Rvci1jdXJ2YXR1cmU9IjAiIHN0eWxlPSJmaWxsOiMyNzczQkE7IiBkPSJNMy41Niw4NC41OWMtMC42MS0wLjUxLTEuNTgtMS4yMi0yLjM0LTEuNjggICAgICBjLTAuMy0wLjItMC43MS0wLjM1LTAuNzYtMC40MWMwLDAtMC4wNSwwLTAuMSwwLjA2bC0wLjExLDAuMXYwLjFjMCwwLDIuMjQsMi4xOSwyLjUsMi40NGMwLjA1LDAuMDUsMC4wNSwwLjIsMC4wNSwwLjI2djEuMTEgICAgICBjMCwwLjA2LTAuMDUsMC4xMS0wLjEsMC4xMUgxLjE3Yy0wLjA1LDAtMC4xLDAtMC4xNS0wLjA1bC0wLjUxLTAuNTFjLTAuMDUsMC0wLjA1LDAtMC4xLDBMMCw4Ni43M2MwLDAuMDUsMCwwLjEsMCwwLjE1ICAgICAgYzAsMCwwLjkyLDAuODEsMC45NywwLjkyYzAuMDUsMC4wNSwwLjEsMC4xLDAuMywwLjFoMi41NWMwLjIsMCwwLjMtMC4xLDAuMy0wLjMxdi0yLjQ0QzQuMDcsODUuMDUsMy45Miw4NC44NCwzLjU2LDg0LjU5eiIvPiYjeGE7CQkJPC9nPiYjeGE7CQkJPGcgaWQ9InNoYXBlMTEyNjEtMzgiIHRyYW5zZm9ybT0idHJhbnNsYXRlKDEyLjc3MDQsLTkuODE5NSkiPiYjeGE7CQkJCTx0aXRsZSBpZD0idGl0bGUyNTc4NTkiPlNoZWV0LjExMjYxPC90aXRsZT4mI3hhOwkJCQk8cGF0aCBpZD0icGF0aDI1Nzg2MSIgaW5rc2NhcGU6Y29ubmVjdG9yLWN1cnZhdHVyZT0iMCIgc3R5bGU9ImZpbGw6IzI3NzNCQTsiIGQ9Ik0wLDg3LjQ0YzAsMCwwLDAuMDUsMC4wNSwwLjFsMC4xLDAuMWgwLjEgICAgICBjMCwwLDIuMTktMi4yNCwyLjQ1LTIuNDljMC4wNS0wLjA1LDAuMi0wLjA1LDAuMjUtMC4wNWgxLjEyYzAuMDUsMCwwLjEsMC4wNSwwLjEsMC4xdjEuNTNjMCwwLjA1LDAsMC4xLTAuMDUsMC4xNWwtMC41MSwwLjUxICAgICAgYzAsMC4wNSwwLDAuMDUsMCwwLjFsMC42MSwwLjQxYzAuMDUsMCwwLjEsMCwwLjE2LDBjMCwwLDAuODEtMC45MiwwLjkxLTAuOTdjMC4wNS0wLjA1LDAuMS0wLjEsMC4xLTAuM3YtMi41NSAgICAgIGMwLTAuMi0wLjEtMC4zLTAuMy0wLjNIMi43Yy0wLjIxLDAtMC4zNiwwLjE1LTAuNjYsMC41MWMtMC41MSwwLjYxLTEuMjMsMS41Ny0xLjY4LDIuMzRDMC4yLDg3LjAzLDAsODcuMzksMCw4Ny40NHoiLz4mI3hhOwkJCTwvZz4mI3hhOwkJPC9nPiYjeGE7CTwvZz4mI3hhOzwvZz4mI3hhOzwvc3ZnPg==;" parent="1" vertex="1">
          <mxGeometry x="370" y="190" width="48" height="70" as="geometry" />
        </mxCell>
        <mxCell id="mqUPXLCxFS9QpvWDTxzc-7" value="灾备中心" style="shape=image;verticalLabelPosition=bottom;labelBackgroundColor=#ffffff;verticalAlign=top;aspect=fixed;imageAspect=0;image=data:image/svg+xml,PHN2ZyB4bWxuczpjYz0iaHR0cDovL2NyZWF0aXZlY29tbW9ucy5vcmcvbnMjIiB4bWxuczpkYz0iaHR0cDovL3B1cmwub3JnL2RjL2VsZW1lbnRzLzEuMS8iIHhtbG5zOmlua3NjYXBlPSJodHRwOi8vd3d3Lmlua3NjYXBlLm9yZy9uYW1lc3BhY2VzL2lua3NjYXBlIiB4bWxuczpyZGY9Imh0dHA6Ly93d3cudzMub3JnLzE5OTkvMDIvMjItcmRmLXN5bnRheC1ucyMiIHhtbG5zOnNvZGlwb2RpPSJodHRwOi8vc29kaXBvZGkuc291cmNlZm9yZ2UubmV0L0RURC9zb2RpcG9kaS0wLmR0ZCIgeG1sbnM6c3ZnPSJodHRwOi8vd3d3LnczLm9yZy8yMDAwL3N2ZyIgeG1sbnM9Imh0dHA6Ly93d3cudzMub3JnLzIwMDAvc3ZnIiB4bWxuczp4bGluaz0iaHR0cDovL3d3dy53My5vcmcvMTk5OS94bGluayIgdmVyc2lvbj0iMS4xIiBpZD0ic3ZnMjYwNjc4IiBpbmtzY2FwZTp2ZXJzaW9uPSIwLjkyLjMgKDI0MDU1NDYsIDIwMTgtMDMtMTEpIiBzb2RpcG9kaTpkb2NuYW1lPSJvcmFjbGVfc2VydmVyLnN2ZyIgeD0iMHB4IiB5PSIwcHgiIHZpZXdCb3g9IjAgMCA0OC40MSA2OS43NiIgc3R5bGU9ImVuYWJsZS1iYWNrZ3JvdW5kOm5ldyAwIDAgNDguNDEgNjkuNzY7IiB4bWw6c3BhY2U9InByZXNlcnZlIj4mI3hhOzxzb2RpcG9kaTpuYW1lZHZpZXcgYm9yZGVyY29sb3I9IiM2NjY2NjYiIGJvcmRlcm9wYWNpdHk9IjEiIGZpdC1tYXJnaW4tYm90dG9tPSIwIiBmaXQtbWFyZ2luLWxlZnQ9IjAiIGZpdC1tYXJnaW4tcmlnaHQ9IjAiIGZpdC1tYXJnaW4tdG9wPSIwIiBncmlkdG9sZXJhbmNlPSIxMCIgZ3VpZGV0b2xlcmFuY2U9IjEwIiBpZD0ibmFtZWR2aWV3MjYwNjgwIiBpbmtzY2FwZTpjdXJyZW50LWxheWVyPSJzdmcyNjA2NzgiIGlua3NjYXBlOmN4PSIzMi4xOTA4OTciIGlua3NjYXBlOmN5PSI0Ni41MDgzNDYiIGlua3NjYXBlOnBhZ2VvcGFjaXR5PSIwIiBpbmtzY2FwZTpwYWdlc2hhZG93PSIyIiBpbmtzY2FwZTp3aW5kb3ctaGVpZ2h0PSIxMDE3IiBpbmtzY2FwZTp3aW5kb3ctbWF4aW1pemVkPSIxIiBpbmtzY2FwZTp3aW5kb3ctd2lkdGg9IjE5MjAiIGlua3NjYXBlOndpbmRvdy14PSItOCIgaW5rc2NhcGU6d2luZG93LXk9Ii04IiBpbmtzY2FwZTp6b29tPSI5LjEyNTM2ODkiIG9iamVjdHRvbGVyYW5jZT0iMTAiIHBhZ2Vjb2xvcj0iI2ZmZmZmZiIgc2hvd2dyaWQ9ImZhbHNlIj4mI3hhOwk8L3NvZGlwb2RpOm5hbWVkdmlldz4mI3hhOzxnIGlkPSJnMjYwNjc2IiB0cmFuc2Zvcm09InRyYW5zbGF0ZSgtMC43NSwtMC43NTAwMzg3OCkiPiYjeGE7CTx0aXRsZSBpZD0idGl0bGUyNjA1NTkiPlBhZ2UtMTwvdGl0bGU+JiN4YTsJPGcgaWQ9Imdyb3VwMTEwMDEtMSIgdHJhbnNmb3JtPSJ0cmFuc2xhdGUoMS41LC0xLjUpIj4mI3hhOwkJPHRpdGxlIGlkPSJ0aXRsZTI2MDU2MSI+T3JhY2xlIFNlcnZlcjwvdGl0bGU+JiN4YTsJCTxnIGlkPSJncm91cDExMDAyLTIiPiYjeGE7CQkJPHRpdGxlIGlkPSJ0aXRsZTI2MDU2MyI+R2VuZXJpYyBTZXJ2aWNlPC90aXRsZT4mI3hhOwkJCTxnIGlkPSJncm91cDExMDAzLTMiIHRyYW5zZm9ybT0idHJhbnNsYXRlKDAsLTAuMDA3Mzk4NzYpIj4mI3hhOwkJCQk8dGl0bGUgaWQ9InRpdGxlMjYwNTY1Ij5nMTU0MzMuMTE3MjE8L3RpdGxlPiYjeGE7CQkJCTxnIGlkPSJzaGFwZTExMDA0LTQiPiYjeGE7CQkJCQk8dGl0bGUgaWQ9InRpdGxlMjYwNTY3Ij5yZWN0MTU0MDU8L3RpdGxlPiYjeGE7CQkJCQkmI3hhOwkJCQkJCTxyZWN0IGlkPSJyZWN0MjYwNTY5IiB5PSIzLjAxIiBzdHlsZT0iZmlsbDojRkZGRkZGO3N0cm9rZTojNTU2QThBO3N0cm9rZS13aWR0aDoxLjU7c3Ryb2tlLW1pdGVybGltaXQ6MzsiIHdpZHRoPSIzOS43NSIgaGVpZ2h0PSI2OC4yNSIvPiYjeGE7CQkJCTwvZz4mI3hhOwkJCQk8ZyBpZD0iZ3JvdXAxMTAwNS02IiB0cmFuc2Zvcm09InRyYW5zbGF0ZSgxLjUsLTAuNzUpIj4mI3hhOwkJCQkJPHRpdGxlIGlkPSJ0aXRsZTI2MDU3MiI+ZzE1NDI1PC90aXRsZT4mI3hhOwkJCQkJPGcgaWQ9InNoYXBlMTEwMDYtNyIgdHJhbnNmb3JtPSJ0cmFuc2xhdGUoMTgpIj4mI3hhOwkJCQkJCTx0aXRsZSBpZD0idGl0bGUyNjA1NzQiPnJlY3QxNTQwNzwvdGl0bGU+JiN4YTsJCQkJCQk8cmVjdCBpZD0icmVjdDI2MDU3NiIgeT0iNC41MSIgc3R5bGU9ImZpbGw6I0U1RTVFNTsiIHdpZHRoPSIxOS41IiBoZWlnaHQ9IjY2Ljc1Ii8+JiN4YTsJCQkJCTwvZz4mI3hhOwkJCQkJPGcgaWQ9InNoYXBlMTEwMDctOSIgdHJhbnNmb3JtPSJ0cmFuc2xhdGUoMCwtNDgpIj4mI3hhOwkJCQkJCTx0aXRsZSBpZD0idGl0bGUyNjA1NzkiPnJlY3QxNTQwOTwvdGl0bGU+JiN4YTsJCQkJCQk8cmVjdCBpZD0icmVjdDI2MDU4MSIgeT0iNjkuMDEiIHN0eWxlPSJmaWxsOiMyQkM3RjQ7IiB3aWR0aD0iMTgiIGhlaWdodD0iMi4yNSIvPiYjeGE7CQkJCQk8L2c+JiN4YTsJCQkJCTxnIGlkPSJzaGFwZTExMDA4LTExIiB0cmFuc2Zvcm09InRyYW5zbGF0ZSgwLC01OC41KSI+JiN4YTsJCQkJCQk8dGl0bGUgaWQ9InRpdGxlMjYwNTg0Ij5wb2x5Z29uMTU0MTE8L3RpdGxlPiYjeGE7CQkJCQkJPHJlY3QgaWQ9InJlY3QyNjA1ODYiIHk9IjY5LjAxIiBzdHlsZT0iZmlsbDpub25lOyIgd2lkdGg9IjI3IiBoZWlnaHQ9IjIuMjUiLz4mI3hhOwkJCQkJPC9nPiYjeGE7CQkJCQk8ZyBpZD0ic2hhcGUxMTAwOS0xMyIgdHJhbnNmb3JtPSJ0cmFuc2xhdGUoMCwtNTguNSkiPiYjeGE7CQkJCQkJPHRpdGxlIGlkPSJ0aXRsZTI2MDU4OSI+cG9seWxpbmUxNTQxMzwvdGl0bGU+JiN4YTsJCQkJCQk8cmVjdCBpZD0icmVjdDI2MDU5MSIgeT0iNjkuMDEiIHN0eWxlPSJmaWxsOm5vbmU7IiB3aWR0aD0iMjciIGhlaWdodD0iMi4yNSIvPiYjeGE7CQkJCQk8L2c+JiN4YTsJCQkJCTxnIGlkPSJzaGFwZTExMDEwLTE1IiB0cmFuc2Zvcm09InRyYW5zbGF0ZSgwLC01My4yNSkiPiYjeGE7CQkJCQkJPHRpdGxlIGlkPSJ0aXRsZTI2MDU5NCI+cmVjdDE1NDE1PC90aXRsZT4mI3hhOwkJCQkJCTxyZWN0IGlkPSJyZWN0MjYwNTk2IiB5PSI2OS4wMSIgc3R5bGU9ImZpbGw6IzJCQzdGNDsiIHdpZHRoPSIxOCIgaGVpZ2h0PSIyLjI1Ii8+JiN4YTsJCQkJCTwvZz4mI3hhOwkJCQkJPGcgaWQ9InNoYXBlMTEwMTEtMTciIHRyYW5zZm9ybT0idHJhbnNsYXRlKDAsLTU4LjUpIj4mI3hhOwkJCQkJCTx0aXRsZSBpZD0idGl0bGUyNjA1OTkiPnJlY3QxNTQxNzwvdGl0bGU+JiN4YTsJCQkJCQk8cmVjdCBpZD0icmVjdDI2MDYwMSIgeT0iNjkuMDEiIHN0eWxlPSJmaWxsOiMyQkM3RjQ7IiB3aWR0aD0iMTgiIGhlaWdodD0iMi4yNSIvPiYjeGE7CQkJCQk8L2c+JiN4YTsJCQkJCTxnIGlkPSJzaGFwZTExMDEyLTE5IiB0cmFuc2Zvcm09InRyYW5zbGF0ZSgxOCwtNDgpIj4mI3hhOwkJCQkJCTx0aXRsZSBpZD0idGl0bGUyNjA2MDQiPnJlY3QxNTQxOTwvdGl0bGU+JiN4YTsJCQkJCQk8cmVjdCBpZD0icmVjdDI2MDYwNiIgeT0iNjkuMDEiIHN0eWxlPSJmaWxsOiM1NTZBOEE7IiB3aWR0aD0iMTkuNSIgaGVpZ2h0PSIyLjI1Ii8+JiN4YTsJCQkJCTwvZz4mI3hhOwkJCQkJPGcgaWQ9InNoYXBlMTEwMTMtMjEiIHRyYW5zZm9ybT0idHJhbnNsYXRlKDE4LC01My4yNSkiPiYjeGE7CQkJCQkJPHRpdGxlIGlkPSJ0aXRsZTI2MDYwOSI+cmVjdDE1NDIxPC90aXRsZT4mI3hhOwkJCQkJCTxyZWN0IGlkPSJyZWN0MjYwNjExIiB5PSI2OS4wMSIgc3R5bGU9ImZpbGw6IzU1NkE4QTsiIHdpZHRoPSIxOS41IiBoZWlnaHQ9IjIuMjUiLz4mI3hhOwkJCQkJPC9nPiYjeGE7CQkJCQk8ZyBpZD0ic2hhcGUxMTAxNC0yMyIgdHJhbnNmb3JtPSJ0cmFuc2xhdGUoMTgsLTU4LjUpIj4mI3hhOwkJCQkJCTx0aXRsZSBpZD0idGl0bGUyNjA2MTQiPnJlY3QxNTQyMzwvdGl0bGU+JiN4YTsJCQkJCQk8cmVjdCBpZD0icmVjdDI2MDYxNiIgeT0iNjkuMDEiIHN0eWxlPSJmaWxsOiM1NTZBOEE7IiB3aWR0aD0iMTkuNSIgaGVpZ2h0PSIyLjI1Ii8+JiN4YTsJCQkJCTwvZz4mI3hhOwkJCQk8L2c+JiN4YTsJCQkJPGcgaWQ9InNoYXBlMTEwMTUtMjUiIHRyYW5zZm9ybT0idHJhbnNsYXRlKDAuNzUsLTU5LjI1KSI+JiN4YTsJCQkJCTx0aXRsZSBpZD0idGl0bGUyNjA2MjAiPnJlY3QxNTQyNzwvdGl0bGU+JiN4YTsJCQkJCTxyZWN0IGlkPSJyZWN0MjYwNjIyIiB5PSI2OS4wMSIgc3R5bGU9ImZpbGw6IzU1NkE4QTsiIHdpZHRoPSIyLjI1IiBoZWlnaHQ9IjIuMjUiLz4mI3hhOwkJCQk8L2c+JiN4YTsJCQkJPGcgaWQ9InNoYXBlMTEwMTYtMjciIHRyYW5zZm9ybT0idHJhbnNsYXRlKDAuNzUsLTU0KSI+JiN4YTsJCQkJCTx0aXRsZSBpZD0idGl0bGUyNjA2MjUiPnJlY3QxNTQyOTwvdGl0bGU+JiN4YTsJCQkJCTxyZWN0IGlkPSJyZWN0MjYwNjI3IiB5PSI2OS4wMSIgc3R5bGU9ImZpbGw6IzU1NkE4QTsiIHdpZHRoPSIyLjI1IiBoZWlnaHQ9IjIuMjUiLz4mI3hhOwkJCQk8L2c+JiN4YTsJCQkJPGcgaWQ9InNoYXBlMTEwMTctMjkiIHRyYW5zZm9ybT0idHJhbnNsYXRlKDAuNzUsLTQ4Ljc1KSI+JiN4YTsJCQkJCTx0aXRsZSBpZD0idGl0bGUyNjA2MzAiPnJlY3QxNTQzMTwvdGl0bGU+JiN4YTsJCQkJCTxyZWN0IGlkPSJyZWN0MjYwNjMyIiB5PSI2OS4wMSIgc3R5bGU9ImZpbGw6IzU1NkE4QTsiIHdpZHRoPSIyLjI1IiBoZWlnaHQ9IjIuMjUiLz4mI3hhOwkJCQk8L2c+JiN4YTsJCQk8L2c+JiN4YTsJCQk8ZyBpZD0ic2hhcGUxMTAxOC0zMSIgdHJhbnNmb3JtPSJ0cmFuc2xhdGUoMTMuNjk4MykiPiYjeGE7CQkJCTx0aXRsZSBpZD0idGl0bGUyNjA2MzYiPnBvbHlnb24xNTQzNS4xMTczNzwvdGl0bGU+JiN4YTsJCQkJJiN4YTsJCQkJCTxwYXRoIGlkPSJwYXRoMjYwNjM4IiBpbmtzY2FwZTpjb25uZWN0b3ItY3VydmF0dXJlPSIwIiBzdHlsZT0iZmlsbDojRkZGRkZGO3N0cm9rZTojRkYwMDAwO3N0cm9rZS13aWR0aDoxLjU7c3Ryb2tlLW1pdGVybGltaXQ6MzsiIGQ9IiAgICAgIE04LjI3LDcxLjI2TDAsNTcuMDJsOC4yNy0xNC4yM2gxNi41NWw4LjI3LDE0LjIzbC04LjI3LDE0LjI0SDguMjd6Ii8+JiN4YTsJCQk8L2c+JiN4YTsJCTwvZz4mI3hhOwkJPGcgaWQ9Imdyb3VwMTEwMTktMzMiIHRyYW5zZm9ybT0idHJhbnNsYXRlKDIxLjc1MjgsLTQuOTI3NzEpIj4mI3hhOwkJCTx0aXRsZSBpZD0idGl0bGUyNjA2NDIiPk9yYWNsZSBEYXRhYmFzZS4zOTIxPC90aXRsZT4mI3hhOwkJCTxnIGlkPSJzaGFwZTExMDIwLTM0IiB0cmFuc2Zvcm09InRyYW5zbGF0ZSgwLC0wLjA2MTQwMDMpIj4mI3hhOwkJCQk8dGl0bGUgaWQ9InRpdGxlMjYwNjQ0Ij5TaGVldC4xMTAyMDwvdGl0bGU+JiN4YTsJCQkJPHBhdGggaWQ9InBhdGgyNjA2NDYiIGlua3NjYXBlOmNvbm5lY3Rvci1jdXJ2YXR1cmU9IjAiIHN0eWxlPSJmaWxsOiNFQjIyMjc7IiBkPSJNOC40Nyw1NC45MkMzLjgxLDU0LjkyLDAsNTQuMjUsMCw1My4zOXYxNi4zMyAgICAgIGMwLDAuODYsMy44MSwxLjU0LDguNDcsMS41NGM0LjY3LDAsOC40OC0wLjY4LDguNDgtMS41NFY1My4zOUMxNy4wMSw1NC4yNSwxMy4yLDU0LjkyLDguNDcsNTQuOTJ6Ii8+JiN4YTsJCQk8L2c+JiN4YTsJCQk8ZyBpZD0ic2hhcGUxMTAyMS0zNiI+JiN4YTsJCQkJPHRpdGxlIGlkPSJ0aXRsZTI2MDY0OSI+U2hlZXQuMTEwMjE8L3RpdGxlPiYjeGE7CQkJCTxwYXRoIGlkPSJwYXRoMjYwNjUxIiBpbmtzY2FwZTpjb25uZWN0b3ItY3VydmF0dXJlPSIwIiBzdHlsZT0iZmlsbDojRDgyMzI4OyIgZD0iTTAsNTMuMzl2MTYuMzNjMCwwLjg2LDMuODEsMS41NCw4LjQ3LDEuNTQgICAgICBWNTQuOTJDMy44MSw1NC44NiwwLDU0LjE5LDAsNTMuMzl6Ii8+JiN4YTsJCQk8L2c+JiN4YTsJCQk8ZyBpZD0ic2hhcGUxMTAyMi0zOCIgdHJhbnNmb3JtPSJ0cmFuc2xhdGUoMTUuODQxMywtMC43OTgyMDMpIj4mI3hhOwkJCQk8dGl0bGUgaWQ9InRpdGxlMjYwNjU0Ij5TaGVldC4xMTAyMjwvdGl0bGU+JiN4YTsJCQkJPHBhdGggaWQ9InBhdGgyNjA2NTYiIGlua3NjYXBlOmNvbm5lY3Rvci1jdXJ2YXR1cmU9IjAiIHN0eWxlPSJmaWxsOiNEODIzMjg7IiBkPSJNMCw1NC45MnYxNi4zNGMwLjc0LTAuMjUsMS4xNy0wLjQ5LDEuMTctMC43NCAgICAgIFY1NC4xOUMxLjE3LDU0LjQzLDAuNzQsNTQuNzQsMCw1NC45MnoiLz4mI3hhOwkJCTwvZz4mI3hhOwkJCTxnIGlkPSJzaGFwZTExMDIzLTQwIiB0cmFuc2Zvcm09InRyYW5zbGF0ZSgwLjA2MTQwMDMsLTE2LjMzMjUpIj4mI3hhOwkJCQk8dGl0bGUgaWQ9InRpdGxlMjYwNjU5Ij5TaGVldC4xMTAyMzwvdGl0bGU+JiN4YTsJCQkJPHBhdGggaWQ9InBhdGgyNjA2NjEiIGlua3NjYXBlOmNvbm5lY3Rvci1jdXJ2YXR1cmU9IjAiIHN0eWxlPSJmaWxsOiNCOTIzMjc7IiBkPSJNMTYuOTUsNjkuNzJjMCwwLjg2LTMuODEsMS41NC04LjQ4LDEuNTQgICAgICBDMy44MSw3MS4yNiwwLDcwLjU4LDAsNjkuNzJzMy44MS0xLjUzLDguNDctMS41M0MxMy4xNCw2OC4xOSwxNi45NSw2OC44NiwxNi45NSw2OS43MnoiLz4mI3hhOwkJCTwvZz4mI3hhOwkJCTxnIGlkPSJzaGFwZTExMDI0LTQyIiB0cmFuc2Zvcm09InRyYW5zbGF0ZSgwLC00Ljg1MDYyKSI+JiN4YTsJCQkJPHRpdGxlIGlkPSJ0aXRsZTI2MDY2NCI+U2hlZXQuMTEwMjQ8L3RpdGxlPiYjeGE7CQkJCTxwYXRoIGlkPSJwYXRoMjYwNjY2IiBpbmtzY2FwZTpjb25uZWN0b3ItY3VydmF0dXJlPSIwIiBzdHlsZT0iZmlsbDojOUExQzIxOyIgZD0iTTAsNjguNDljMCwwLjg2LDMuODEsMS41NCw4LjQ3LDEuNTQgICAgICBjNC42NywwLDguNDgtMC42OCw4LjQ4LTEuNTR2MS4yM2MwLDAuODYtMy44MSwxLjU0LTguNDgsMS41NEMzLjgxLDcxLjI2LDAsNzAuNTgsMCw2OS43MlY2OC40OXoiLz4mI3hhOwkJCTwvZz4mI3hhOwkJCTxnIGlkPSJzaGFwZTExMDI1LTQ0IiB0cmFuc2Zvcm09InRyYW5zbGF0ZSgwLjA2MTQwMDMsLTEwLjI1MzgpIj4mI3hhOwkJCQk8dGl0bGUgaWQ9InRpdGxlMjYwNjY5Ij5TaGVldC4xMTAyNTwvdGl0bGU+JiN4YTsJCQkJPHBhdGggaWQ9InBhdGgyNjA2NzEiIGlua3NjYXBlOmNvbm5lY3Rvci1jdXJ2YXR1cmU9IjAiIHN0eWxlPSJmaWxsOiM5QTFDMjE7IiBkPSJNMTYuOTUsNjguNDljMCwwLjg2LTMuODEsMS41NC04LjQ4LDEuNTQgICAgICBDMy44MSw3MC4wMywwLDY5LjM1LDAsNjguNDl2MS4yM2MwLDAuODYsMy44MSwxLjU0LDguNDcsMS41NGM0LjY3LDAsOC40OC0wLjY4LDguNDgtMS41NFY2OC40OXoiLz4mI3hhOwkJCTwvZz4mI3hhOwkJPC9nPiYjeGE7CTwvZz4mI3hhOzwvZz4mI3hhOzwvc3ZnPg==;" parent="1" vertex="1">
          <mxGeometry x="590" y="190" width="48" height="70" as="geometry" />
        </mxCell>
        <mxCell id="mqUPXLCxFS9QpvWDTxzc-8" value="" style="shape=image;verticalLabelPosition=bottom;labelBackgroundColor=#ffffff;verticalAlign=top;aspect=fixed;imageAspect=0;image=data:image/svg+xml,PHN2ZyB4bWxuczpjYz0iaHR0cDovL2NyZWF0aXZlY29tbW9ucy5vcmcvbnMjIiB4bWxuczpkYz0iaHR0cDovL3B1cmwub3JnL2RjL2VsZW1lbnRzLzEuMS8iIHhtbG5zOmlua3NjYXBlPSJodHRwOi8vd3d3Lmlua3NjYXBlLm9yZy9uYW1lc3BhY2VzL2lua3NjYXBlIiB4bWxuczpyZGY9Imh0dHA6Ly93d3cudzMub3JnLzE5OTkvMDIvMjItcmRmLXN5bnRheC1ucyMiIHhtbG5zOnNvZGlwb2RpPSJodHRwOi8vc29kaXBvZGkuc291cmNlZm9yZ2UubmV0L0RURC9zb2RpcG9kaS0wLmR0ZCIgeG1sbnM6c3ZnPSJodHRwOi8vd3d3LnczLm9yZy8yMDAwL3N2ZyIgeG1sbnM9Imh0dHA6Ly93d3cudzMub3JnLzIwMDAvc3ZnIiB4bWxuczp4bGluaz0iaHR0cDovL3d3dy53My5vcmcvMTk5OS94bGluayIgdmVyc2lvbj0iMS4xIiBpZD0ic3ZnMTA5MTQyIiBpbmtzY2FwZTp2ZXJzaW9uPSIwLjkyLjMgKDI0MDU1NDYsIDIwMTgtMDMtMTEpIiBzb2RpcG9kaTpkb2NuYW1lPSJhbmRyb2lkX3RhYmxldC5zdmciIHg9IjBweCIgeT0iMHB4IiB2aWV3Qm94PSIwIDAgNDMuNDYgMjguOCIgc3R5bGU9ImVuYWJsZS1iYWNrZ3JvdW5kOm5ldyAwIDAgNDMuNDYgMjguODsiIHhtbDpzcGFjZT0icHJlc2VydmUiPiYjeGE7PHNvZGlwb2RpOm5hbWVkdmlldyBib3JkZXJjb2xvcj0iIzY2NjY2NiIgYm9yZGVyb3BhY2l0eT0iMSIgZml0LW1hcmdpbi1ib3R0b209IjAiIGZpdC1tYXJnaW4tbGVmdD0iMCIgZml0LW1hcmdpbi1yaWdodD0iMCIgZml0LW1hcmdpbi10b3A9IjAiIGdyaWR0b2xlcmFuY2U9IjEwIiBndWlkZXRvbGVyYW5jZT0iMTAiIGlkPSJuYW1lZHZpZXcxMDkxNDQiIGlua3NjYXBlOmN1cnJlbnQtbGF5ZXI9InN2ZzEwOTE0MiIgaW5rc2NhcGU6Y3g9IjI4Ljk3NTkyIiBpbmtzY2FwZTpjeT0iMTkuMjAyMTI0IiBpbmtzY2FwZTpwYWdlb3BhY2l0eT0iMCIgaW5rc2NhcGU6cGFnZXNoYWRvdz0iMiIgaW5rc2NhcGU6d2luZG93LWhlaWdodD0iMTAxNyIgaW5rc2NhcGU6d2luZG93LW1heGltaXplZD0iMSIgaW5rc2NhcGU6d2luZG93LXdpZHRoPSIxOTIwIiBpbmtzY2FwZTp3aW5kb3cteD0iLTgiIGlua3NjYXBlOndpbmRvdy15PSItOCIgaW5rc2NhcGU6em9vbT0iMjIuNTgwNjY1IiBvYmplY3R0b2xlcmFuY2U9IjEwIiBwYWdlY29sb3I9IiNmZmZmZmYiIHNob3dncmlkPSJmYWxzZSI+JiN4YTsJPC9zb2RpcG9kaTpuYW1lZHZpZXc+JiN4YTs8ZyBpZD0iZzEwOTE0MCI+JiN4YTsJPHRpdGxlIGlkPSJ0aXRsZTEwOTA3MCI+UGFnZS0xPC90aXRsZT4mI3hhOwk8ZyBpZD0iZ3JvdXAxLTEiPiYjeGE7CQk8dGl0bGUgaWQ9InRpdGxlMTA5MDcyIj5BbmRyb2lkIHRhYmxldDwvdGl0bGU+JiN4YTsJCTxnIGlkPSJzaGFwZTItMiI+JiN4YTsJCQk8dGl0bGUgaWQ9InRpdGxlMTA5MDc0Ij5TaGVldC4yPC90aXRsZT4mI3hhOwkJCTxwYXRoIGlkPSJwYXRoMTA5MDc2IiBpbmtzY2FwZTpjb25uZWN0b3ItY3VydmF0dXJlPSIwIiBzdHlsZT0iZmlsbDojM0Y1NzY1OyIgZD0iTTEuNzYsMjguOEMwLjY5LDI4LjgsMCwyOC4xNSwwLDI3LjA3ICAgICBDMCwxLjc2LDAsMS43NiwwLDEuNzZDMCwwLjg4LDAuNjksMCwxLjc2LDBjMzkuOTgsMCwzOS45OCwwLDM5Ljk4LDBjMC44OCwwLDEuNzIsMC44OCwxLjcyLDEuNzZjMCwyNS4zMSwwLDI1LjMxLDAsMjUuMzEgICAgIGMwLDEuMDgtMC44NCwxLjczLTEuNzIsMS43M0gxLjc2eiIvPiYjeGE7CQk8L2c+JiN4YTsJCTxnIGlkPSJzaGFwZTMtNCIgdHJhbnNmb3JtPSJ0cmFuc2xhdGUoMy4wNjA4NCwtMy4wNjM0OCkiPiYjeGE7CQkJPHRpdGxlIGlkPSJ0aXRsZTEwOTA3OSI+U2hlZXQuMzwvdGl0bGU+JiN4YTsJCQk8cGF0aCBpZD0icGF0aDEwOTA4MSIgaW5rc2NhcGU6Y29ubmVjdG9yLWN1cnZhdHVyZT0iMCIgc3R5bGU9ImZpbGw6I0ZGRkZGRjsiIGQ9Ik0wLDYuMTNWMjguOGgzNi43M1Y2LjEzSDB6Ii8+JiN4YTsJCTwvZz4mI3hhOwkJPGcgaWQ9InNoYXBlNC02IiB0cmFuc2Zvcm09InRyYW5zbGF0ZSgyNi4zMjMyLC0xMS42NDEyKSI+JiN4YTsJCQk8dGl0bGUgaWQ9InRpdGxlMTA5MDg0Ij5TaGVldC40PC90aXRsZT4mI3hhOwkJCTxwYXRoIGlkPSJwYXRoMTA5MDg2IiBpbmtzY2FwZTpjb25uZWN0b3ItY3VydmF0dXJlPSIwIiBzdHlsZT0iZmlsbDojOTdDMDNFOyIgZD0iTTEuODQsMjQuMmMwLDMuNjgsMCwzLjY4LDAsMy42OCAgICAgYzAsMC4yMywwLDAuNDYtMC4yMywwLjY5YzAsMC4yMy0wLjIzLDAuMjMtMC42OSwwLjIzQzAuNDYsMjguOCwwLDI4LjM0LDAsMjcuODhjMC0zLjY4LDAtMy42OCwwLTMuNjggICAgIGMwLTAuMjMsMC4yMy0wLjQ2LDAuNDYtMC42OWMwLTAuMjMsMC4yMy0wLjIzLDAuNDYtMC4yM0MxLjYxLDIzLjI4LDEuODQsMjMuNTEsMS44NCwyNC4yeiIvPiYjeGE7CQk8L2c+JiN4YTsJCTxnIGlkPSJzaGFwZTUtOCIgdHJhbnNmb3JtPSJ0cmFuc2xhdGUoMTcuNzUyOSwtNi43Mzk2NykiPiYjeGE7CQkJPHRpdGxlIGlkPSJ0aXRsZTEwOTA4OSI+U2hlZXQuNTwvdGl0bGU+JiN4YTsJCQk8cGF0aCBpZD0icGF0aDEwOTA5MSIgaW5rc2NhcGU6Y29ubmVjdG9yLWN1cnZhdHVyZT0iMCIgc3R5bGU9ImZpbGw6Izk3QzAzRTsiIGQ9Ik03Ljk2LDE4LjM4YzAsNi4zNiwwLDYuMzYsMCw2LjM2ICAgICBjMCwwLjY5LDAsMS4xNS0xLjA3LDEuMTVjLTAuNDYsMC0wLjQ2LDAtMC40NiwwYzAsMi4wMywwLDIuMDMsMCwyLjAzYzAsMC40Ni0wLjQ2LDAuODgtMC44OCwwLjg4Yy0wLjQ2LDAtMC44OC0wLjQyLTAuODgtMC44OCAgICAgYzAtMi4wMywwLTIuMDMsMC0yLjAzYy0xLjU3LDAtMS41NywwLTEuNTcsMGMwLDIuMDMsMCwyLjAzLDAsMi4wM2MwLDAuNDYtMC4xOSwwLjg4LTAuODgsMC44OGMtMC40MiwwLTAuODgtMC40Mi0wLjg4LTAuODggICAgIGMwLTIuMDMsMC0yLjAzLDAtMi4wM2MtMC40MiwwLTAuNDIsMC0wLjQyLDBDMCwyNS44OSwwLDI1LjQzLDAsMjQuNzRjMC02LjM2LDAtNi4zNiwwLTYuMzZINy45NnoiLz4mI3hhOwkJPC9nPiYjeGE7CQk8ZyBpZD0ic2hhcGU2LTEwIiB0cmFuc2Zvcm09InRyYW5zbGF0ZSgxNy43NTI5LC0xNy43NjgyKSI+JiN4YTsJCQk8dGl0bGUgaWQ9InRpdGxlMTA5MDk0Ij5TaGVldC42PC90aXRsZT4mI3hhOwkJCTxwYXRoIGlkPSJwYXRoMTA5MDk2IiBpbmtzY2FwZTpjb25uZWN0b3ItY3VydmF0dXJlPSIwIiBzdHlsZT0iZmlsbDojRkZGRkZGOyIgZD0iTTcuOTYsMjguOEMwLDI4LjgsMCwyOC44LDAsMjguOCAgICAgYzAtMSwwLjY5LTIuMDMsMS45OS0yLjY1Yy0wLjY1LTAuOC0wLjY1LTAuOC0wLjY1LTAuOGMwLTAuMjMsMC0wLjIzLDAtMC4yM3MwLDAsMC4yMywwYzAuNjUsMS4wMywwLjY1LDEuMDMsMC42NSwxLjAzICAgICBjMC40Ni0wLjE5LDEuMTEtMC4xOSwxLjc2LTAuMTljMC40NiwwLDEuMTEsMCwxLjU3LDAuMTljMC44OC0xLjAzLDAuODgtMS4wMywwLjg4LTEuMDNzMCwwLDAuMjMsMGMwLDAsMCwwLDAsMC4yMyAgICAgYy0wLjg4LDAuOC0wLjg4LDAuOC0wLjg4LDAuOEM3LjA4LDI2Ljc3LDcuOTYsMjcuOCw3Ljk2LDI4Ljh6IE02LjIsMjcuMzhjMC0wLjE5LTAuMjMtMC40Mi0wLjQyLTAuNDIgICAgIGMtMC40NiwwLTAuNDYsMC4yMy0wLjQ2LDAuNDJzMCwwLjQyLDAuNDYsMC40MkM1Ljk3LDI3LjgsNi4yLDI3LjU3LDYuMiwyNy4zOHogTTIuNjgsMjcuMzhjMC0wLjE5LTAuMjMtMC40Mi0wLjQ2LTAuNDIgICAgIFMxLjgsMjcuMTksMS44LDI3LjM4czAuMTksMC40MiwwLjQyLDAuNDJTMi42OCwyNy41NywyLjY4LDI3LjM4eiIvPiYjeGE7CQk8L2c+JiN4YTsJCTxnIGlkPSJzaGFwZTctMTIiIHRyYW5zZm9ybT0idHJhbnNsYXRlKDE1LjMwNDIsLTExLjY0MTIpIj4mI3hhOwkJCTx0aXRsZSBpZD0idGl0bGUxMDkwOTkiPlNoZWV0Ljc8L3RpdGxlPiYjeGE7CQkJPHBhdGggaWQ9InBhdGgxMDkxMDEiIGlua3NjYXBlOmNvbm5lY3Rvci1jdXJ2YXR1cmU9IjAiIHN0eWxlPSJmaWxsOiM5N0MwM0U7IiBkPSJNMS44NCwyNC4yYzAsMy42OCwwLDMuNjgsMCwzLjY4ICAgICBjMCwwLjIzLDAsMC40Ni0wLjIzLDAuNjlDMS4zOCwyOC44LDEuMTUsMjguOCwwLjkyLDI4LjhDMC40NiwyOC44LDAsMjguMzQsMCwyNy44OGMwLTMuNjgsMC0zLjY4LDAtMy42OCAgICAgYzAtMC4yMywwLjIzLTAuNDYsMC4yMy0wLjY5YzAuMjMtMC4yMywwLjQ2LTAuMjMsMC42OS0wLjIzQzEuMzgsMjMuMjgsMS44NCwyMy41MSwxLjg0LDI0LjJ6Ii8+JiN4YTsJCTwvZz4mI3hhOwkJPGcgaWQ9InNoYXBlOC0xNCIgdHJhbnNmb3JtPSJ0cmFuc2xhdGUoMTUuMzA0MiwtNi4xMjY5NykiPiYjeGE7CQkJPHRpdGxlIGlkPSJ0aXRsZTEwOTEwNCI+U2hlZXQuODwvdGl0bGU+JiN4YTsJCQk8cGF0aCBpZD0icGF0aDEwOTEwNiIgaW5rc2NhcGU6Y29ubmVjdG9yLWN1cnZhdHVyZT0iMCIgc3R5bGU9ImZpbGw6I0ZGRkZGRjsiIGQ9Ik0xMS45OCwxNy41NGMtMC4yMywwLTAuNjUsMC4yMy0wLjg4LDAuMjMgICAgIGMwLTAuMjMsMC0wLjIzLDAtMC4yM2wwLDBjMC0xLjExLTAuNjUtMi4yMi0xLjczLTMuMWMwLjQyLTAuNDYsMC40Mi0wLjQ2LDAuNDItMC40NmMwLTAuMTksMC4yMy0wLjE5LDAtMC40MiAgICAgYzAtMC4yMywwLTAuNDYtMC4yMi0wLjQ2YzAtMC4yMy0wLjItMC4yMy0wLjQzLTAuMjNjLTAuMjMsMC0wLjQyLDAuMjMtMC40MiwwLjQ2Yy0wLjY1LDAuNjUtMC42NSwwLjY1LTAuNjUsMC42NSAgICAgYy0wLjQ2LTAuMTktMC44OC0wLjE5LTEuMzQtMC4xOWMtMC42NSwwLTEuMDcsMC0xLjQ5LDAuMTljLTAuNDYtMC42NS0wLjQ2LTAuNjUtMC40Ni0wLjY1Yy0wLjE5LTAuMjMtMC40Mi0wLjQ2LTAuNjUtMC40NiAgICAgYzAsMC0wLjE5LDAtMC40MiwwLjIzYzAsMC0wLjIzLDAuMjMtMC4yMywwLjQ2YzAsMC4yMywwLDAuMjMsMC4yMywwLjQyYzAuMjMsMC40NiwwLjIzLDAuNDYsMC4yMywwLjQ2ICAgICBjLTEuMTEsMC44OC0xLjc2LDEuOTktMS43NiwzLjFsMCwwYzAsMC4yMywwLDAuMjMsMCwwLjIzYy0wLjE5LDAtMC40Mi0wLjIzLTAuODQtMC4yM0MwLjQ2LDE3LjU0LDAsMTguMTksMCwxOS4wNyAgICAgYzAsMy41NiwwLDMuNTYsMCwzLjU2YzAsMC44OCwwLjQ2LDEuNTMsMS4zNCwxLjUzYzAuNDIsMCwwLjY1LTAuMjMsMC44NC0wLjQyYzAsMC42NSwwLDAuNjUsMCwwLjY1YzAsMC40MiwwLDEuNTMsMS41MywxLjUzICAgICBjMCwxLjU3LDAsMS41NywwLDEuNTdjMCwwLjY2LDAuNjUsMS4zMSwxLjMsMS4zMWMwLjg4LDAsMS41My0wLjY1LDEuNTMtMS4zMWMwLTEuNTcsMC0xLjU3LDAtMS41N2MwLjQyLDAsMC40MiwwLDAuNDIsMCAgICAgYzAsMS41NywwLDEuNTcsMCwxLjU3YzAsMC42NiwwLjY1LDEuMzEsMS4zLDEuMzFjMC44OCwwLDEuNTMtMC42NSwxLjUzLTEuMzFjMC0xLjU3LDAtMS41NywwLTEuNTdjMS4zMSwwLDEuMzEtMS4xMSwxLjMxLTEuNTMgICAgIGMwLTAuNjUsMC0wLjY1LDAtMC42NWMwLjIzLDAuMTksMC42NSwwLjQyLDAuODgsMC40MmMwLjg0LDAsMS40OS0wLjY1LDEuNDktMS41M2MwLTMuNTYsMC0zLjU2LDAtMy41NiAgICAgQzEzLjQ3LDE4LjE5LDEyLjgyLDE3LjU0LDExLjk4LDE3LjU0eiIvPiYjeGE7CQk8L2c+JiN4YTsJCTxnIGlkPSJzaGFwZTktMTYiIHRyYW5zZm9ybT0idHJhbnNsYXRlKDE1LjMwNDIsLTExLjY0MTIpIj4mI3hhOwkJCTx0aXRsZSBpZD0idGl0bGUxMDkxMDkiPlNoZWV0Ljk8L3RpdGxlPiYjeGE7CQkJPHBhdGggaWQ9InBhdGgxMDkxMTEiIGlua3NjYXBlOmNvbm5lY3Rvci1jdXJ2YXR1cmU9IjAiIHN0eWxlPSJmaWxsOiMzRjU3NjU7IiBkPSJNMS44NCwyNC4yYzAtMC42OS0wLjQ2LTAuOTItMC45Mi0wLjkyICAgICBjLTAuMjMsMC0wLjQ2LDAtMC42OSwwLjIzQzAuMjMsMjMuNzQsMCwyMy45NywwLDI0LjJjMCwzLjY4LDAsMy42OCwwLDMuNjhjMCwwLjQ2LDAuNDYsMC45MiwwLjkyLDAuOTJjMC4yMywwLDAuNDYsMCwwLjY5LTAuMjMgICAgIHMwLjIzLTAuNDYsMC4yMy0wLjY5VjI0LjJ6Ii8+JiN4YTsJCTwvZz4mI3hhOwkJPGcgaWQ9InNoYXBlMTAtMTgiIHRyYW5zZm9ybT0idHJhbnNsYXRlKDE3Ljc1MjksLTYuNzM5NjcpIj4mI3hhOwkJCTx0aXRsZSBpZD0idGl0bGUxMDkxMTQiPlNoZWV0LjEwPC90aXRsZT4mI3hhOwkJCTxwYXRoIGlkPSJwYXRoMTA5MTE2IiBpbmtzY2FwZTpjb25uZWN0b3ItY3VydmF0dXJlPSIwIiBzdHlsZT0iZmlsbDojM0Y1NzY1OyIgZD0iTTAsMTguMzhjMCw2LjM2LDAsNi4zNiwwLDYuMzYgICAgIGMwLDAuNjksMCwxLjE1LDAuOTIsMS4xNWMwLjQyLDAsMC40MiwwLDAuNDIsMGMwLDIuMDMsMCwyLjAzLDAsMi4wM2MwLDAuNDYsMC40NiwwLjg4LDAuODgsMC44OGMwLjY5LDAsMC44OC0wLjQyLDAuODgtMC44OCAgICAgYzAtMi4wMywwLTIuMDMsMC0yLjAzYzEuNTcsMCwxLjU3LDAsMS41NywwYzAsMi4wMywwLDIuMDMsMCwyLjAzYzAsMC40NiwwLjQyLDAuODgsMC44OCwwLjg4YzAuNDIsMCwwLjg4LTAuNDIsMC44OC0wLjg4ICAgICBjMC0yLjAzLDAtMi4wMywwLTIuMDNjMC40NiwwLDAuNDYsMCwwLjQ2LDBjMS4wNywwLDEuMDctMC40NiwxLjA3LTEuMTVjMC02LjM2LDAtNi4zNiwwLTYuMzZIMHoiLz4mI3hhOwkJPC9nPiYjeGE7CQk8ZyBpZD0ic2hhcGUxMS0yMCIgdHJhbnNmb3JtPSJ0cmFuc2xhdGUoMTcuNzUyOSwtMTcuNzY4MikiPiYjeGE7CQkJPHRpdGxlIGlkPSJ0aXRsZTEwOTExOSI+U2hlZXQuMTE8L3RpdGxlPiYjeGE7CQkJPHBhdGggaWQ9InBhdGgxMDkxMjEiIGlua3NjYXBlOmNvbm5lY3Rvci1jdXJ2YXR1cmU9IjAiIHN0eWxlPSJmaWxsOiMzRjU3NjU7IiBkPSJNNS43OCwyNi4xNWMwLjg4LTAuOCwwLjg4LTAuOCwwLjg4LTAuOCAgICAgYzAtMC4yMywwLTAuMjMsMC0wLjIzYy0wLjIzLDAtMC4yMywwLTAuMjMsMGMtMC44OCwxLjAzLTAuODgsMS4wMy0wLjg4LDEuMDNjLTAuNDYtMC4xOS0xLjExLTAuMTktMS41Ny0wLjE5ICAgICBjLTAuNjUsMC0xLjMsMC0xLjc2LDAuMTljLTAuNjUtMS4wMy0wLjY1LTEuMDMtMC42NS0xLjAzYy0wLjIzLDAtMC4yMywwLTAuMjMsMHMwLDAsMCwwLjIzYzAuNjUsMC44LDAuNjUsMC44LDAuNjUsMC44ICAgICBDMC42OSwyNi43NywwLDI3LjgsMCwyOC44YzcuOTYsMCw3Ljk2LDAsNy45NiwwQzcuOTYsMjcuOCw3LjA4LDI2Ljc3LDUuNzgsMjYuMTV6Ii8+JiN4YTsJCTwvZz4mI3hhOwkJPGcgaWQ9InNoYXBlMTItMjIiIHRyYW5zZm9ybT0idHJhbnNsYXRlKDI2LjMyMzIsLTExLjY0MTIpIj4mI3hhOwkJCTx0aXRsZSBpZD0idGl0bGUxMDkxMjQiPlNoZWV0LjEyPC90aXRsZT4mI3hhOwkJCTxwYXRoIGlkPSJwYXRoMTA5MTI2IiBpbmtzY2FwZTpjb25uZWN0b3ItY3VydmF0dXJlPSIwIiBzdHlsZT0iZmlsbDojM0Y1NzY1OyIgZD0iTTEuODQsMjQuMmMwLTAuNjktMC4yMy0wLjkyLTAuOTItMC45MiAgICAgYy0wLjIzLDAtMC40NiwwLTAuNDYsMC4yM0MwLjIzLDIzLjc0LDAsMjMuOTcsMCwyNC4yYzAsMy42OCwwLDMuNjgsMCwzLjY4YzAsMC40NiwwLjQ2LDAuOTIsMC45MiwwLjkyczAuNjksMCwwLjY5LTAuMjMgICAgIGMwLjIzLTAuMjMsMC4yMy0wLjQ2LDAuMjMtMC42OVYyNC4yeiIvPiYjeGE7CQk8L2c+JiN4YTsJCTxnIGlkPSJzaGFwZTEzLTI0IiB0cmFuc2Zvcm09InRyYW5zbGF0ZSgxOS41ODk0LC0xOC45OTM2KSI+JiN4YTsJCQk8dGl0bGUgaWQ9InRpdGxlMTA5MTI5Ij5TaGVldC4xMzwvdGl0bGU+JiN4YTsJCQk8cGF0aCBpZD0icGF0aDEwOTEzMSIgaW5rc2NhcGU6Y29ubmVjdG9yLWN1cnZhdHVyZT0iMCIgc3R5bGU9ImZpbGw6I0ZGRkZGRjsiIGQ9Ik0wLDI4LjQ5YzAtMC4xNSwwLjMxLTAuMzEsMC42MS0wLjMxICAgICBjMC4zNSwwLDAuNjEsMC4xNiwwLjYxLDAuMzFjMCwwLjE5LTAuMjYsMC4zMS0wLjYxLDAuMzFDMC4zMSwyOC44LDAsMjguNjgsMCwyOC40OXoiLz4mI3hhOwkJPC9nPiYjeGE7CQk8ZyBpZD0ic2hhcGUxNC0yNiIgdHJhbnNmb3JtPSJ0cmFuc2xhdGUoMjMuMjYyNCwtMTguOTkzNikiPiYjeGE7CQkJPHRpdGxlIGlkPSJ0aXRsZTEwOTEzNCI+U2hlZXQuMTQ8L3RpdGxlPiYjeGE7CQkJPHBhdGggaWQ9InBhdGgxMDkxMzYiIGlua3NjYXBlOmNvbm5lY3Rvci1jdXJ2YXR1cmU9IjAiIHN0eWxlPSJmaWxsOiNGRkZGRkY7IiBkPSJNMCwyOC40OWMwLTAuMTUsMC4xNS0wLjMxLDAuMzEtMC4zMSAgICAgYzAuMTksMCwwLjMsMC4xNiwwLjMsMC4zMWMwLDAuMTktMC4xMSwwLjMxLTAuMywwLjMxQzAuMTUsMjguOCwwLDI4LjY4LDAsMjguNDl6Ii8+JiN4YTsJCTwvZz4mI3hhOwk8L2c+JiN4YTs8L2c+JiN4YTs8L3N2Zz4=;" parent="1" vertex="1">
          <mxGeometry x="360" y="442.5" width="43" height="29" as="geometry" />
        </mxCell>
        <mxCell id="mqUPXLCxFS9QpvWDTxzc-9" value="" style="shape=image;verticalLabelPosition=bottom;labelBackgroundColor=#ffffff;verticalAlign=top;aspect=fixed;imageAspect=0;image=data:image/svg+xml,PHN2ZyB4bWxuczpkYz0iaHR0cDovL3B1cmwub3JnL2RjL2VsZW1lbnRzLzEuMS8iIHhtbG5zOmNjPSJodHRwOi8vY3JlYXRpdmVjb21tb25zLm9yZy9ucyMiIHhtbG5zOnJkZj0iaHR0cDovL3d3dy53My5vcmcvMTk5OS8wMi8yMi1yZGYtc3ludGF4LW5zIyIgeG1sbnM6c3ZnPSJodHRwOi8vd3d3LnczLm9yZy8yMDAwL3N2ZyIgeG1sbnM9Imh0dHA6Ly93d3cudzMub3JnLzIwMDAvc3ZnIiB4bWxuczp4bGluaz0iaHR0cDovL3d3dy53My5vcmcvMTk5OS94bGluayIgeG1sbnM6c29kaXBvZGk9Imh0dHA6Ly9zb2RpcG9kaS5zb3VyY2Vmb3JnZS5uZXQvRFREL3NvZGlwb2RpLTAuZHRkIiB4bWxuczppbmtzY2FwZT0iaHR0cDovL3d3dy5pbmtzY2FwZS5vcmcvbmFtZXNwYWNlcy9pbmtzY2FwZSIgdmVyc2lvbj0iMS4xIiBpZD0iTGF5ZXJfMSIgeD0iMHB4IiB5PSIwcHgiIHZpZXdCb3g9IjAgMCAzNS45NTAwMDggMzEuNDUwMDA2IiB4bWw6c3BhY2U9InByZXNlcnZlIiBzb2RpcG9kaTpkb2NuYW1lPSJzYXBfY3VzdG9tX2RvbWFpbi5zdmciIHdpZHRoPSIzNS45NTAwMDgiIGhlaWdodD0iMzEuNDUwMDA2IiBpbmtzY2FwZTp2ZXJzaW9uPSIwLjkyLjMgKDI0MDU1NDYsIDIwMTgtMDMtMTEpIj48bWV0YWRhdGEgaWQ9Im1ldGFkYXRhNTI5MjEiPjxyZGY6UkRGPjxjYzpXb3JrIHJkZjphYm91dD0iIj48ZGM6Zm9ybWF0PmltYWdlL3N2Zyt4bWw8L2RjOmZvcm1hdD48ZGM6dHlwZSByZGY6cmVzb3VyY2U9Imh0dHA6Ly9wdXJsLm9yZy9kYy9kY21pdHlwZS9TdGlsbEltYWdlIi8+PGRjOnRpdGxlLz48L2NjOldvcms+PC9yZGY6UkRGPjwvbWV0YWRhdGE+PGRlZnMgaWQ9ImRlZnM1MjkxOSIvPjxzb2RpcG9kaTpuYW1lZHZpZXcgcGFnZWNvbG9yPSIjZmZmZmZmIiBib3JkZXJjb2xvcj0iIzY2NjY2NiIgYm9yZGVyb3BhY2l0eT0iMSIgb2JqZWN0dG9sZXJhbmNlPSIxMCIgZ3JpZHRvbGVyYW5jZT0iMTAiIGd1aWRldG9sZXJhbmNlPSIxMCIgaW5rc2NhcGU6cGFnZW9wYWNpdHk9IjAiIGlua3NjYXBlOnBhZ2VzaGFkb3c9IjIiIGlua3NjYXBlOndpbmRvdy13aWR0aD0iMTkyMCIgaW5rc2NhcGU6d2luZG93LWhlaWdodD0iMTAxNyIgaWQ9Im5hbWVkdmlldzUyOTE3IiBzaG93Z3JpZD0iZmFsc2UiIGZpdC1tYXJnaW4tdG9wPSIwIiBmaXQtbWFyZ2luLWxlZnQ9IjAiIGZpdC1tYXJnaW4tcmlnaHQ9IjAiIGZpdC1tYXJnaW4tYm90dG9tPSIwIiBpbmtzY2FwZTp6b29tPSIxLjAzMDMwMyIgaW5rc2NhcGU6Y3g9Ii0xOS41NTQ5OTMiIGlua3NjYXBlOmN5PSItMTc5LjUxIiBpbmtzY2FwZTp3aW5kb3cteD0iLTgiIGlua3NjYXBlOndpbmRvdy15PSItOCIgaW5rc2NhcGU6d2luZG93LW1heGltaXplZD0iMSIgaW5rc2NhcGU6Y3VycmVudC1sYXllcj0iTGF5ZXJfMSIvPiYjeGE7JiN4YTs8ZyBpZD0iZzUyOTE0IiB0cmFuc2Zvcm09InRyYW5zbGF0ZSgtMzE2LjkyOTk5LC0yMDkuNzg5OTkpIj4mI3hhOwk8ZGVmcyBpZD0iZGVmczUyODkzIj4mI3hhOwkJPHJlY3QgaWQ9IlNWR0lEXzNfIiB4PSIzMTYuOTI5OTkiIHk9IjIwOS43ODk5OSIgd2lkdGg9IjM2LjgyIiBoZWlnaHQ9IjMzLjk5MDAwMiIvPiYjeGE7CTwvZGVmcz4mI3hhOwk8Y2xpcFBhdGggaWQ9IlNWR0lEXzRfIj4mI3hhOwkJPHVzZSB4bGluazpocmVmPSIjU1ZHSURfM18iIHN0eWxlPSJvdmVyZmxvdzp2aXNpYmxlIiBpZD0idXNlNTI4OTUiIHg9IjAiIHk9IjAiIHdpZHRoPSIxMDAlIiBoZWlnaHQ9IjEwMCUiLz4mI3hhOwk8L2NsaXBQYXRoPiYjeGE7CTxnIGNsaXAtcGF0aD0idXJsKCNTVkdJRF80XykiIGlkPSJnNTI5MTIiPiYjeGE7CQk8ZGVmcyBpZD0iZGVmczUyODk5Ij4mI3hhOwkJCTxyZWN0IGlkPSJTVkdJRF81XyIgeD0iMzE2LjkyOTk5IiB5PSIyMDkuNzg5OTkiIHdpZHRoPSIzNi44MiIgaGVpZ2h0PSIzMy45OTAwMDIiLz4mI3hhOwkJPC9kZWZzPiYjeGE7CQk8Y2xpcFBhdGggaWQ9IlNWR0lEXzZfIj4mI3hhOwkJCTx1c2UgeGxpbms6aHJlZj0iI1NWR0lEXzVfIiBzdHlsZT0ib3ZlcmZsb3c6dmlzaWJsZSIgaWQ9InVzZTUyOTAxIiB4PSIwIiB5PSIwIiB3aWR0aD0iMTAwJSIgaGVpZ2h0PSIxMDAlIi8+JiN4YTsJCTwvY2xpcFBhdGg+JiN4YTsJCTxwYXRoIHN0eWxlPSJmaWxsOiM1YTdhOTQiIGQ9Im0gMzM5LjkzLDIwOS43OSBoIDcuOTEgYyAwLjMsMCAwLjU0LDAuMjQgMC41NCwwLjU0IHYgMS4xNCBjIDAsMC4zIC0wLjI0LDAuNiAtMC41NCwwLjYgaCAtNy45MSBjIC0wLjMsMCAtMC41NCwtMC4zIC0wLjU0LC0wLjYgdiAtMS4xNCBjIDAsLTAuMyAwLjI0LC0wLjU0IDAuNTQsLTAuNTQgeiIgY2xpcC1wYXRoPSJ1cmwoI1NWR0lEXzZfKSIgaWQ9InBhdGg1MjkwNCIgaW5rc2NhcGU6Y29ubmVjdG9yLWN1cnZhdHVyZT0iMCIvPiYjeGE7CQk8cGF0aCBzdHlsZT0iZmlsbDojNWE3YTk0IiBkPSJtIDMyOC43MywyMDkuNzkgaCA3Ljg1IGMgMC4zLDAgMC42LDAuMjQgMC42LDAuNTQgdiAxLjE0IGMgMCwwLjMgLTAuMywwLjYgLTAuNiwwLjYgaCAtNy44NSBjIC0wLjMsMCAtMC41NCwtMC4zIC0wLjU0LC0wLjYgdiAtMS4xNCBjIDAsLTAuMyAwLjI0LC0wLjU0IDAuNTQsLTAuNTQgeiIgY2xpcC1wYXRoPSJ1cmwoI1NWR0lEXzZfKSIgaWQ9InBhdGg1MjkwNiIgaW5rc2NhcGU6Y29ubmVjdG9yLWN1cnZhdHVyZT0iMCIvPiYjeGE7CQk8cGF0aCBzdHlsZT0iZmlsbDojNWE3YTk0IiBkPSJtIDM1MC42NSwyMTYuNTYgdiAwIDIyLjQ2IEggMzE5LjIgdiAtMjIuNDYgeiBtIC0zMy43MiwyMi40NiB2IDAgYyAwLDAuMyAwLjA2LDAuNTQgMC4xOCwwLjg0IDAuMjQsMC41NCAwLjY2LDAuOTYgMS4yLDEuMiAwLjMsMC4xMiAwLjYsMC4xOCAwLjksMC4xOCBoIDMxLjQ1IGMgMS4yLDAgMi4yMiwtMS4wMiAyLjIyLC0yLjIyIHYgLTIyLjQ2IGMgMCwtMS4yNiAtMS4wMiwtMi4yOCAtMi4yMiwtMi4yOCBoIC0yNC43NCB2IC0zLjk1IGMgMC4wNiwtMC4zIC0wLjI0LC0wLjYgLTAuNTQsLTAuNTQgaCAtNy45MSBjIC0wLjMsLTAuMDYgLTAuNiwwLjI0IC0wLjU0LDAuNTQgeiIgY2xpcC1wYXRoPSJ1cmwoI1NWR0lEXzZfKSIgaWQ9InBhdGg1MjkwOCIgaW5rc2NhcGU6Y29ubmVjdG9yLWN1cnZhdHVyZT0iMCIvPiYjeGE7CQk8cGF0aCBzdHlsZT0iZmlsbDojMDA5MmQxIiBkPSJtIDM0MS42MSwyMzAuMDQgaCAtMyBjIDAuMDYsLTAuNDIgMC4xOCwtMC43OCAwLjE4LC0xLjE0IDAuMDYsLTAuNDIgMC4wNiwtMC45IDAuMDYsLTEuMzIgMCwtMC43MiAtMC4wNiwtMS4zOCAtMC4xOCwtMi4wNCBoIDIuOTQgYyAwLjU0LDEuNDQgMC41NCwzIDAsNC41IHogbSAtMi43NiwzLjU5IGMgLTAuNzgsMC41NCAtMS42OCwwLjkgLTIuNjQsMS4wOCAwLjg0LC0wLjg0IDEuNSwtMS44NiAxLjkyLC0yLjk5IGggMi43IGMgLTAuNTQsMC43NyAtMS4yLDEuNDMgLTEuOTgsMS45MSB6IG0gLTMuOTUsMC43OCBjIC0wLjQyLC0wLjMgLTAuNzgsLTAuNzIgLTEuMDgsLTEuMTQgLTAuMzYsLTAuNDggLTAuNzIsLTEuMDIgLTAuOTYsLTEuNTYgSCAzMzcgYyAtMC40MiwxLjA4IC0xLjE0LDIuMDQgLTIuMSwyLjcgeiBtIC0zLjg5LC0wLjc4IGMgLTAuNzgsLTAuNDggLTEuNDQsLTEuMTQgLTEuOTgsLTEuOTIgaCAyLjcgYyAwLjQyLDEuMTQgMS4wOCwyLjE2IDEuOTIsMi45OSAtMC45NywtMC4xNyAtMS44NiwtMC41MyAtMi42NCwtMS4wNyB6IG0gLTIuNzYsLTMuNTkgYyAtMC4xMiwtMC4zNiAtMC4yNCwtMC43MiAtMC4zLC0xLjAyIC0wLjE4LC0wLjg0IC0wLjE4LC0xLjY4IDAsLTIuNTIgMC4wNiwtMC4zIDAuMTgsLTAuNjYgMC4zLC0wLjk2IGggMi45NCBjIC0wLjEyLDAuNjYgLTAuMjQsMS4zMiAtMC4yNCwyLjA0IDAsMC44NCAwLjEyLDEuNjIgMC4zLDIuNDYgeiBtIDQuOTEsLTkuMTEgYyAtMC42NiwwLjg0IC0xLjIsMS44NiAtMS41NiwyLjg3IGggLTIuNTggYyAwLjk3LC0xLjQzIDIuNDcsLTIuNTEgNC4xNCwtMi44NyB6IG0gMS43NCwtMC4xOCBjIDAuNDgsMC4zNiAwLjksMC43OCAxLjI2LDEuMzIgMC40MiwwLjU0IDAuNzIsMS4xNCAwLjk2LDEuNzQgaCAtNC4zNyBjIDAuNDEsLTEuMiAxLjEzLC0yLjI4IDIuMTUsLTMuMDYgeiBtIDIuOTQsNi44MyBjIDAsMC40MiAtMC4wNiwwLjkgLTAuMTIsMS4zMiAtMC4wNiwwLjM2IC0wLjEyLDAuNzIgLTAuMjQsMS4xNCBoIC01LjA5IGMgLTAuMTIsLTAuNDIgLTAuMTgsLTAuNzggLTAuMjQsLTEuMTQgLTAuMDYsLTAuNDIgLTAuMTIsLTAuOSAtMC4xMiwtMS4zMiAwLC0wLjcyIDAuMTIsLTEuMzggMC4yNCwtMi4wNCBoIDUuMzMgYyAwLjEyLDAuNjYgMC4yNCwxLjMyIDAuMjQsMi4wNCB6IG0gMi45OSwtMy43NyBoIC0yLjU4IGMgLTAuMzYsLTEuMDIgLTAuOSwtMi4wNCAtMS41NiwtMi44NyAxLjY4LDAuMzUgMy4xOCwxLjQzIDQuMTQsMi44NyB6IG0gMi40NiwwLjc4IGMgLTAuMzYsLTEuMDIgLTAuOSwtMS45MiAtMS41NiwtMi43IC0wLjY2LC0wLjc4IC0xLjUsLTEuNDQgLTIuNCwtMS45OCAtMC45NiwtMC41NCAtMS45OCwtMC44NCAtMywtMS4wMiAtMC4yNCwtMC4wNiAtMC40OCwtMC4wNiAtMC43MiwtMC4wNiAtMC40OCwtMC4wNiAtMC45LC0wLjA2IC0xLjM4LDAgLTAuMjQsMCAtMC40OCwwIC0wLjcyLDAuMDYgLTEuMDgsMC4xOCAtMi4xLDAuNDggLTMsMS4wMiAtMC45LDAuNTQgLTEuNzQsMS4yIC0yLjQsMS45OCAtMC43MiwwLjc4IC0xLjI2LDEuNzQgLTEuNjIsMi43IC0wLjQyLDEuMDIgLTAuNiwyLjEgLTAuNiwzLjE3IDAsMS4yIDAuMjQsMi40IDAuNzIsMy40NyAwLjksMi4xNiAyLjY0LDMuODkgNC43OSw0Ljc5IDEuMDgsMC40OCAyLjI4LDAuNzIgMy40NywwLjcyIDEuMiwwIDIuNCwtMC4yNCAzLjUzLC0wLjcyIDEuMDgsLTAuNDggMi4wNCwtMS4xNCAyLjg4LC0xLjkyIDEuNjgsLTEuNjggMi41OCwtMy45NSAyLjU4LC02LjM1IDAuMDMsLTEuMDcgLTAuMTUsLTIuMTUgLTAuNTcsLTMuMTYgeiIgY2xpcC1wYXRoPSJ1cmwoI1NWR0lEXzZfKSIgaWQ9InBhdGg1MjkxMCIgaW5rc2NhcGU6Y29ubmVjdG9yLWN1cnZhdHVyZT0iMCIvPiYjeGE7CTwvZz4mI3hhOzwvZz4mI3hhOzwvc3ZnPg==;" parent="1" vertex="1">
          <mxGeometry x="440" y="441.5" width="36" height="31" as="geometry" />
        </mxCell>
        <mxCell id="mqUPXLCxFS9QpvWDTxzc-10" value="" style="shape=image;verticalLabelPosition=bottom;labelBackgroundColor=#ffffff;verticalAlign=top;aspect=fixed;imageAspect=0;image=data:image/svg+xml,PHN2ZyB4bWxuczpkYz0iaHR0cDovL3B1cmwub3JnL2RjL2VsZW1lbnRzLzEuMS8iIHhtbG5zOmNjPSJodHRwOi8vY3JlYXRpdmVjb21tb25zLm9yZy9ucyMiIHhtbG5zOnJkZj0iaHR0cDovL3d3dy53My5vcmcvMTk5OS8wMi8yMi1yZGYtc3ludGF4LW5zIyIgeG1sbnM6c3ZnPSJodHRwOi8vd3d3LnczLm9yZy8yMDAwL3N2ZyIgeG1sbnM9Imh0dHA6Ly93d3cudzMub3JnLzIwMDAvc3ZnIiB4bWxuczp4bGluaz0iaHR0cDovL3d3dy53My5vcmcvMTk5OS94bGluayIgeG1sbnM6c29kaXBvZGk9Imh0dHA6Ly9zb2RpcG9kaS5zb3VyY2Vmb3JnZS5uZXQvRFREL3NvZGlwb2RpLTAuZHRkIiB4bWxuczppbmtzY2FwZT0iaHR0cDovL3d3dy5pbmtzY2FwZS5vcmcvbmFtZXNwYWNlcy9pbmtzY2FwZSIgdmVyc2lvbj0iMS4xIiBpZD0iTGF5ZXJfMSIgeD0iMHB4IiB5PSIwcHgiIHZpZXdCb3g9IjAgMCAzNS45NTAwMDEgMjkuMjE5OTk5IiB4bWw6c3BhY2U9InByZXNlcnZlIiBzb2RpcG9kaTpkb2NuYW1lPSJzYXBfaWRlbnRpdHlfcHJvdmlzaW9uaW5nLnN2ZyIgd2lkdGg9IjM1Ljk1MDAwMSIgaGVpZ2h0PSIyOS4yMTk5OTkiIGlua3NjYXBlOnZlcnNpb249IjAuOTIuMyAoMjQwNTU0NiwgMjAxOC0wMy0xMSkiPjxtZXRhZGF0YSBpZD0ibWV0YWRhdGE1NDI3NCI+PHJkZjpSREY+PGNjOldvcmsgcmRmOmFib3V0PSIiPjxkYzpmb3JtYXQ+aW1hZ2Uvc3ZnK3htbDwvZGM6Zm9ybWF0PjxkYzp0eXBlIHJkZjpyZXNvdXJjZT0iaHR0cDovL3B1cmwub3JnL2RjL2RjbWl0eXBlL1N0aWxsSW1hZ2UiLz48ZGM6dGl0bGUvPjwvY2M6V29yaz48L3JkZjpSREY+PC9tZXRhZGF0YT48ZGVmcyBpZD0iZGVmczU0MjcyIi8+PHNvZGlwb2RpOm5hbWVkdmlldyBwYWdlY29sb3I9IiNmZmZmZmYiIGJvcmRlcmNvbG9yPSIjNjY2NjY2IiBib3JkZXJvcGFjaXR5PSIxIiBvYmplY3R0b2xlcmFuY2U9IjEwIiBncmlkdG9sZXJhbmNlPSIxMCIgZ3VpZGV0b2xlcmFuY2U9IjEwIiBpbmtzY2FwZTpwYWdlb3BhY2l0eT0iMCIgaW5rc2NhcGU6cGFnZXNoYWRvdz0iMiIgaW5rc2NhcGU6d2luZG93LXdpZHRoPSIxOTIwIiBpbmtzY2FwZTp3aW5kb3ctaGVpZ2h0PSIxMDE3IiBpZD0ibmFtZWR2aWV3NTQyNzAiIHNob3dncmlkPSJmYWxzZSIgZml0LW1hcmdpbi10b3A9IjAiIGZpdC1tYXJnaW4tbGVmdD0iMCIgZml0LW1hcmdpbi1yaWdodD0iMCIgZml0LW1hcmdpbi1ib3R0b209IjAiIGlua3NjYXBlOnpvb209IjEuMDMwMzAzIiBpbmtzY2FwZTpjeD0iMS43MjUiIGlua3NjYXBlOmN5PSItMTk1Ljk0IiBpbmtzY2FwZTp3aW5kb3cteD0iLTgiIGlua3NjYXBlOndpbmRvdy15PSItOCIgaW5rc2NhcGU6d2luZG93LW1heGltaXplZD0iMSIgaW5rc2NhcGU6Y3VycmVudC1sYXllcj0iTGF5ZXJfMSIvPiYjeGE7JiN4YTs8ZyBpZD0iZzU0MjY3IiB0cmFuc2Zvcm09InRyYW5zbGF0ZSgtMjk1LjY1LC0xOTUuNTkpIj4mI3hhOwk8ZGVmcyBpZD0iZGVmczU0MjQyIj4mI3hhOwkJPHJlY3QgaWQ9IlNWR0lEXzNfIiB4PSIyOTUuNjQ5OTkiIHk9IjE5NS41OSIgd2lkdGg9IjM2LjgyIiBoZWlnaHQ9IjMxLjE1Ii8+JiN4YTsJPC9kZWZzPiYjeGE7CTxjbGlwUGF0aCBpZD0iU1ZHSURfNF8iPiYjeGE7CQk8dXNlIHhsaW5rOmhyZWY9IiNTVkdJRF8zXyIgc3R5bGU9Im92ZXJmbG93OnZpc2libGUiIGlkPSJ1c2U1NDI0NCIgeD0iMCIgeT0iMCIgd2lkdGg9IjEwMCUiIGhlaWdodD0iMTAwJSIvPiYjeGE7CTwvY2xpcFBhdGg+JiN4YTsJPGcgY2xpcC1wYXRoPSJ1cmwoI1NWR0lEXzRfKSIgaWQ9Imc1NDI2NSI+JiN4YTsJCTxkZWZzIGlkPSJkZWZzNTQyNDgiPiYjeGE7CQkJPHJlY3QgaWQ9IlNWR0lEXzVfIiB4PSIyOTUuNjQ5OTkiIHk9IjE5NS41OSIgd2lkdGg9IjM2LjgyIiBoZWlnaHQ9IjMxLjE1Ii8+JiN4YTsJCTwvZGVmcz4mI3hhOwkJPGNsaXBQYXRoIGlkPSJTVkdJRF82XyI+JiN4YTsJCQk8dXNlIHhsaW5rOmhyZWY9IiNTVkdJRF81XyIgc3R5bGU9Im92ZXJmbG93OnZpc2libGUiIGlkPSJ1c2U1NDI1MCIgeD0iMCIgeT0iMCIgd2lkdGg9IjEwMCUiIGhlaWdodD0iMTAwJSIvPiYjeGE7CQk8L2NsaXBQYXRoPiYjeGE7CQk8cGF0aCBzdHlsZT0iZmlsbDojNWE3YTk0IiBkPSJtIDMyNi45OCwyMDUuMjkgYyAtMC43OCwtNC4zNyAtNS43NSwtNi41OSAtOS41OCwtNC4yNSAtMS4zMiwtMy4yOSAtNC40MywtNS40NSAtNy45NywtNS40NSAtOS40NiwwLjQ4IC04LjQ1LDkuNyAtOC40NSw5LjcgLTMuMTcsMS4wMiAtNS4zMyw0LjAxIC01LjMzLDcuMzEgMCw0LjI1IDIuNyw3LjcyIDYuOTUsNy43MiBoIDAuNTQgdiAtMi4yOCBoIC0wLjU0IGMgLTMsMCAtNC42NywtMi40NSAtNC42NywtNS40NSAwLC0yLjM0IDEuNSwtNC40MyAzLjcxLC01LjE1IGwgMS43NCwtMC42IC0wLjE4LC0xLjc0IGMgMCwtMC4wNiAtMC4zLC0zLjE3IDEuNSwtNS4yNyAxLjAyLC0xLjIgMi42NCwtMS44NiA0Ljc5LC0xLjk4IDIuNTgsMC4wNiA0LjkxLDEuNjIgNS45OSwzLjk1IGwgMC44NCwyLjE2IDEuODYsLTAuOTYgYyAwLjc4LC0wLjQyIDEuNjIsLTAuNjYgMi41MiwtMC42NiAxLjk4LDAgMy43MSwxLjM4IDQuMDcsMy4zNSBsIDAuMjQsMS4xNCAxLjAyLDAuNDggYyAyLjA0LDAuOSAzLjI5LDIuOTMgMy4zNSw1LjA5IDAsMy4xMSAtMS44LDUuNjMgLTQuOTEsNS42MyBoIC0wLjM2IHYgMi4yOCBoIDAuMzYgYyA0LjM3LDAgNy4xMywtMy41MyA3LjEzLC03LjkgLTAuMDEsLTMuMDUgLTEuODEsLTUuODYgLTQuNjIsLTcuMTIgeiIgY2xpcC1wYXRoPSJ1cmwoI1NWR0lEXzZfKSIgaWQ9InBhdGg1NDI1MyIgaW5rc2NhcGU6Y29ubmVjdG9yLWN1cnZhdHVyZT0iMCIvPiYjeGE7CQk8cGF0aCBzdHlsZT0iZmlsbDojMDA5MmQxIiBkPSJtIDMxMi4yNCwyMjAuMDIgYyAtMC4yNCwtMC4zIC0wLjYsLTAuNDggLTAuOSwtMC42NiAtMC4zNiwtMC4xMiAtMC43MiwtMC4xOCAtMS4wOCwtMC4xOCBoIC0yLjgyIGMgLTAuMzYsMCAtMC43OCwwLjA2IC0xLjA4LDAuMTggLTAuMzYsMC4xOCAtMC42NiwwLjM2IC0wLjksMC42NiAtMC4zLDAuMjQgLTAuNDgsMC41NCAtMC42LDAuODQgLTAuMTgsMC4zNiAtMC4yNCwwLjcyIC0wLjI0LDEuMTQgdiAyLjgxIGggOC40NSBWIDIyMiBjIDAsLTAuNDIgLTAuMTIsLTAuNzggLTAuMjQsLTEuMTQgLTAuMTEsLTAuMyAtMC4zNSwtMC42IC0wLjU5LC0wLjg0IHoiIGNsaXAtcGF0aD0idXJsKCNTVkdJRF82XykiIGlkPSJwYXRoNTQyNTUiIGlua3NjYXBlOmNvbm5lY3Rvci1jdXJ2YXR1cmU9IjAiLz4mI3hhOwkJPHBhdGggc3R5bGU9ImZpbGw6IzAwOTJkMSIgZD0ibSAzMTAuOCwyMTguMzQgYyAwLjMsLTAuMjQgMC40OCwtMC41NCAwLjY2LC0wLjkgMC4yNCwtMC42NiAwLjI0LC0xLjUgMCwtMi4xNiAtMC4zLC0wLjcyIC0wLjg0LC0xLjI2IC0xLjU2LC0xLjUgLTAuNjYsLTAuMyAtMS40NCwtMC4zIC0yLjE2LDAgLTAuMzYsMC4xMiAtMC42NiwwLjMgLTAuOSwwLjYgLTAuMjQsMC4yNCAtMC40OCwwLjU0IC0wLjYsMC45IC0wLjMsMC42NiAtMC4zLDEuNDQgMCwyLjE2IDAuMywwLjY2IDAuODQsMS4yIDEuNSwxLjUgMC43MiwwLjMgMS41LDAuMyAyLjE2LDAgMC4zNywtMC4xMiAwLjY3LC0wLjM2IDAuOSwtMC42IHoiIGNsaXAtcGF0aD0idXJsKCNTVkdJRF82XykiIGlkPSJwYXRoNTQyNTciIGlua3NjYXBlOmNvbm5lY3Rvci1jdXJ2YXR1cmU9IjAiLz4mI3hhOwkJPHBhdGggc3R5bGU9ImZpbGw6IzAwOTJkMSIgZD0ibSAzMjEuNzcsMjIwLjAyIGMgLTAuMjQsLTAuMyAtMC41NCwtMC40OCAtMC45LC0wLjY2IC0wLjMsLTAuMTIgLTAuNzIsLTAuMTggLTEuMDgsLTAuMTggaCAtMi44MiBjIC0wLjM2LDAgLTAuNzIsMC4wNiAtMS4wOCwwLjE4IC0wLjM2LDAuMTggLTAuNjYsMC4zNiAtMC45LDAuNiAtMC4yNCwwLjMgLTAuNDgsMC42IC0wLjYsMC45IC0wLjEyLDAuMzYgLTAuMjQsMC43MiAtMC4yNCwxLjE0IHYgMi44MSBoIDguNDUgViAyMjIgYyAwLC0wLjQyIC0wLjA2LC0wLjc4IC0wLjI0LC0xLjE0IC0wLjExLC0wLjMgLTAuMjksLTAuNiAtMC41OSwtMC44NCB6IiBjbGlwLXBhdGg9InVybCgjU1ZHSURfNl8pIiBpZD0icGF0aDU0MjU5IiBpbmtzY2FwZTpjb25uZWN0b3ItY3VydmF0dXJlPSIwIi8+JiN4YTsJCTxwYXRoIHN0eWxlPSJmaWxsOiMwMDkyZDEiIGQ9Im0gMzIwLjM5LDIxOC4zNCBjIDAuMjQsLTAuMjQgMC40OCwtMC41NCAwLjYsLTAuOSAwLjMsLTAuNjYgMC4zLC0xLjUgMCwtMi4xNiAtMC4zLC0wLjcyIC0wLjg0LC0xLjI2IC0xLjUsLTEuNSAtMC43MiwtMC4zIC0xLjUsLTAuMyAtMi4yMiwwIC0wLjMsMC4xMiAtMC42LDAuMyAtMC44NCwwLjYgLTAuMywwLjI0IC0wLjQ4LDAuNTQgLTAuNjYsMC45IC0wLjI0LDAuNjYgLTAuMjQsMS40NCAwLDIuMTYgMC4zLDAuNjYgMC44NCwxLjIgMS41LDEuNSAwLjcyLDAuMyAxLjUsMC4zIDIuMjIsMCAwLjMsLTAuMTIgMC42NiwtMC4zNiAwLjksLTAuNiB6IiBjbGlwLXBhdGg9InVybCgjU1ZHSURfNl8pIiBpZD0icGF0aDU0MjYxIiBpbmtzY2FwZTpjb25uZWN0b3ItY3VydmF0dXJlPSIwIi8+JiN4YTsJCTxwYXRoIHN0eWxlPSJmaWxsOiMwMDkyZDEiIGQ9Im0gMzA4LjI5LDIxMS4zNCB2IC03LjAxIGwgLTEuNSwxLjggYyAtMC4zLDAuMyAtMC43MiwwLjMgLTAuOTYsMCAtMC4zLC0wLjI0IC0wLjMsLTAuNjYgMCwtMC45IGwgMi4xNiwtMi41MiBjIDAuNTQsLTAuNTQgMS4zOCwtMC41NCAxLjk4LDAgbCAyLjE2LDIuNTIgYyAwLjMsMC4yNCAwLjMsMC42NiAwLDAuOSAtMC4yNCwwLjMgLTAuNzIsMC4zIC0wLjk2LDAgbCAtMS41LC0xLjggdiA3LjAxIHoiIGNsaXAtcGF0aD0idXJsKCNTVkdJRF82XykiIGlkPSJwYXRoNTQyNjMiIGlua3NjYXBlOmNvbm5lY3Rvci1jdXJ2YXR1cmU9IjAiLz4mI3hhOwk8L2c+JiN4YTs8L2c+JiN4YTs8L3N2Zz4=;" parent="1" vertex="1">
          <mxGeometry x="510" y="441.5" width="36" height="29" as="geometry" />
        </mxCell>
        <mxCell id="mqUPXLCxFS9QpvWDTxzc-14" value="广东" style="text;html=1;strokeColor=none;fillColor=none;align=center;verticalAlign=middle;whiteSpace=wrap;rounded=0;" parent="1" vertex="1">
          <mxGeometry x="300" y="310" width="40" height="20" as="geometry" />
        </mxCell>
        <mxCell id="mqUPXLCxFS9QpvWDTxzc-15" value="上海" style="text;html=1;strokeColor=none;fillColor=none;align=center;verticalAlign=middle;whiteSpace=wrap;rounded=0;" parent="1" vertex="1">
          <mxGeometry x="610" y="300" width="40" height="20" as="geometry" />
        </mxCell>
        <mxCell id="mqUPXLCxFS9QpvWDTxzc-17" value="" style="ellipse;shape=cloud;whiteSpace=wrap;html=1;fillColor=none;gradientColor=none;" parent="1" vertex="1">
          <mxGeometry x="300" y="400" width="290" height="112" as="geometry" />
        </mxCell>
        <mxCell id="mqUPXLCxFS9QpvWDTxzc-29" value="用户访问" style="text;html=1;strokeColor=none;fillColor=none;align=center;verticalAlign=middle;whiteSpace=wrap;rounded=0;" parent="1" vertex="1">
          <mxGeometry x="420" y="480" width="64" height="20" as="geometry" />
        </mxCell>
        <mxCell id="mqUPXLCxFS9QpvWDTxzc-30" value="" style="endArrow=classic;html=1;entryX=0.342;entryY=1;entryDx=0;entryDy=0;entryPerimeter=0;strokeWidth=2;strokeColor=#67AB9F;curved=1;" parent="1" target="mqUPXLCxFS9QpvWDTxzc-12" edge="1">
          <mxGeometry width="50" height="50" relative="1" as="geometry">
            <mxPoint x="320" y="430" as="sourcePoint" />
            <mxPoint x="260" y="340" as="targetPoint" />
            <Array as="points">
              <mxPoint x="270" y="380" />
            </Array>
          </mxGeometry>
        </mxCell>
        <mxCell id="mqUPXLCxFS9QpvWDTxzc-32" value="活跃" style="edgeLabel;html=1;align=center;verticalAlign=middle;resizable=0;points=[];" parent="mqUPXLCxFS9QpvWDTxzc-30" vertex="1" connectable="0">
          <mxGeometry x="0.1795" y="9" relative="1" as="geometry">
            <mxPoint as="offset" />
          </mxGeometry>
        </mxCell>
        <mxCell id="mqUPXLCxFS9QpvWDTxzc-31" value="" style="endArrow=classic;html=1;entryX=0.755;entryY=0.989;entryDx=0;entryDy=0;entryPerimeter=0;strokeWidth=2;strokeColor=#67AB9F;curved=1;" parent="1" target="mqUPXLCxFS9QpvWDTxzc-12" edge="1">
          <mxGeometry width="50" height="50" relative="1" as="geometry">
            <mxPoint x="403" y="410" as="sourcePoint" />
            <mxPoint x="383" y="330" as="targetPoint" />
            <Array as="points">
              <mxPoint x="380" y="360" />
            </Array>
          </mxGeometry>
        </mxCell>
        <mxCell id="mqUPXLCxFS9QpvWDTxzc-33" value="活跃" style="edgeLabel;html=1;align=center;verticalAlign=middle;resizable=0;points=[];" parent="mqUPXLCxFS9QpvWDTxzc-31" vertex="1" connectable="0">
          <mxGeometry x="-0.2706" y="5" relative="1" as="geometry">
            <mxPoint as="offset" />
          </mxGeometry>
        </mxCell>
        <mxCell id="mqUPXLCxFS9QpvWDTxzc-37" value="" style="endArrow=classic;html=1;exitX=0.75;exitY=0;exitDx=0;exitDy=0;curved=1;dashed=1;strokeColor=#FF0000;strokeWidth=2;" parent="1" source="mqUPXLCxFS9QpvWDTxzc-5" edge="1">
          <mxGeometry width="50" height="50" relative="1" as="geometry">
            <mxPoint x="390" y="160" as="sourcePoint" />
            <mxPoint x="610" y="180" as="targetPoint" />
            <Array as="points">
              <mxPoint x="440" y="160" />
            </Array>
          </mxGeometry>
        </mxCell>
        <mxCell id="mqUPXLCxFS9QpvWDTxzc-38" value="异步复制" style="edgeLabel;html=1;align=center;verticalAlign=middle;resizable=0;points=[];" parent="mqUPXLCxFS9QpvWDTxzc-37" vertex="1" connectable="0">
          <mxGeometry x="-0.1294" y="-5" relative="1" as="geometry">
            <mxPoint as="offset" />
          </mxGeometry>
        </mxCell>
        <mxCell id="mqUPXLCxFS9QpvWDTxzc-39" value="同步复制" style="curved=1;endArrow=classic;html=1;entryX=0;entryY=0;entryDx=0;entryDy=0;strokeColor=#009900;strokeWidth=2;" parent="1" target="mqUPXLCxFS9QpvWDTxzc-5" edge="1">
          <mxGeometry width="50" height="50" relative="1" as="geometry">
            <mxPoint x="241" y="190" as="sourcePoint" />
            <mxPoint x="291" y="140" as="targetPoint" />
            <Array as="points">
              <mxPoint x="250" y="150" />
              <mxPoint x="330" y="140" />
            </Array>
          </mxGeometry>
        </mxCell>
        <mxCell id="mqUPXLCxFS9QpvWDTxzc-41" value="同步复制" style="curved=1;endArrow=classic;html=1;exitX=0;exitY=0.25;exitDx=0;exitDy=0;strokeColor=#009900;strokeWidth=2;" parent="1" source="mqUPXLCxFS9QpvWDTxzc-5" target="mqUPXLCxFS9QpvWDTxzc-3" edge="1">
          <mxGeometry x="0.0739" width="50" height="50" relative="1" as="geometry">
            <mxPoint x="251" y="200" as="sourcePoint" />
            <mxPoint x="380" y="200" as="targetPoint" />
            <Array as="points">
              <mxPoint x="320" y="180" />
              <mxPoint x="290" y="180" />
            </Array>
            <mxPoint as="offset" />
          </mxGeometry>
        </mxCell>
        <mxCell id="mqUPXLCxFS9QpvWDTxzc-42" value="备用" style="endArrow=classic;html=1;dashed=1;strokeColor=#67AB9F;strokeWidth=2;curved=1;" parent="1" edge="1">
          <mxGeometry width="50" height="50" relative="1" as="geometry">
            <mxPoint x="530" y="420" as="sourcePoint" />
            <mxPoint x="600" y="310" as="targetPoint" />
            <Array as="points">
              <mxPoint x="580" y="370" />
            </Array>
          </mxGeometry>
        </mxCell>
        <mxCell id="mqUPXLCxFS9QpvWDTxzc-43" value="" style="curved=1;endArrow=classic;html=1;dashed=1;strokeColor=#FF0000;strokeWidth=2;entryX=0.37;entryY=-0.003;entryDx=0;entryDy=0;entryPerimeter=0;exitX=0.75;exitY=1;exitDx=0;exitDy=0;" parent="1" source="mqUPXLCxFS9QpvWDTxzc-3" target="mqUPXLCxFS9QpvWDTxzc-13" edge="1">
          <mxGeometry width="50" height="50" relative="1" as="geometry">
            <mxPoint x="640" y="320" as="sourcePoint" />
            <mxPoint x="690" y="270" as="targetPoint" />
            <Array as="points">
              <mxPoint x="410" y="320" />
              <mxPoint x="540" y="280" />
            </Array>
          </mxGeometry>
        </mxCell>
        <mxCell id="mqUPXLCxFS9QpvWDTxzc-44" value="异步复制" style="edgeLabel;html=1;align=center;verticalAlign=middle;resizable=0;points=[];" parent="mqUPXLCxFS9QpvWDTxzc-43" vertex="1" connectable="0">
          <mxGeometry x="0.1257" relative="1" as="geometry">
            <mxPoint as="offset" />
          </mxGeometry>
        </mxCell>
      </root>
    </mxGraphModel>
  </diagram>
</mxfile>
